<svg xmlns="http://www.w3.org/2000/svg" xmlns:xlink="http://www.w3.org/1999/xlink" width="539.11" height="315.841" viewBox="0 0 539.11 315.841">
  <defs>
    <linearGradient id="linear-gradient" x1="0.5" y1="1" x2="0.5" gradientUnits="objectBoundingBox">
      <stop offset="0" stop-color="gray" stop-opacity="0.251"/>
      <stop offset="0.535" stop-color="gray" stop-opacity="0.122"/>
      <stop offset="1" stop-color="gray" stop-opacity="0.102"/>
    </linearGradient>
  </defs>
  <g id="undraw" transform="translate(0 0)">
    <circle id="Ellipse_12" data-name="Ellipse 12" cx="13.707" cy="13.707" r="13.707" transform="translate(309.783 28.055)" fill="none" stroke="#3f3d56" stroke-miterlimit="10" stroke-width="1"/>
    <path id="Tracé_76" data-name="Tracé 76" d="M715.812,186.353l-3.314-3.332A1.759,1.759,0,0,0,710,183l-20.8,20.63-8.8-8.866a1.754,1.754,0,0,0-2.481-.017l-3.349,3.314a1.775,1.775,0,0,0-.017,2.5l13.361,13.465a1.775,1.775,0,0,0,2.5.017l25.385-25.194a1.76,1.76,0,0,0,.017-2.5Z" transform="translate(-364.384 -170.37)" fill="#3499ff"/>
    <rect id="Rectangle_25" data-name="Rectangle 25" width="248.539" height="28.328" rx="14.164" transform="translate(0 34.909)" fill="#f2f2f2"/>
    <rect id="Rectangle_26" data-name="Rectangle 26" width="248.539" height="28.328" rx="14.164" transform="translate(0.311 84.026)" fill="#f2f2f2"/>
    <rect id="Rectangle_27" data-name="Rectangle 27" width="248.539" height="28.328" rx="14.164" transform="translate(0.621 133.144)" fill="#f2f2f2"/>
    <rect id="Rectangle_28" data-name="Rectangle 28" width="248.539" height="28.328" rx="14.164" transform="translate(0.932 182.262)" fill="#f2f2f2"/>
    <rect id="Rectangle_29" data-name="Rectangle 29" width="248.539" height="28.328" rx="14.164" transform="translate(7.767 27.598)" fill="none" stroke="#3f3d56" stroke-miterlimit="10" stroke-width="1"/>
    <rect id="Rectangle_30" data-name="Rectangle 30" width="248.539" height="28.328" rx="14.164" transform="translate(8.078 76.716)" fill="none" stroke="#3f3d56" stroke-miterlimit="10" stroke-width="1"/>
    <rect id="Rectangle_31" data-name="Rectangle 31" width="248.539" height="28.328" rx="14.164" transform="translate(8.389 125.833)" fill="none" stroke="#3f3d56" stroke-miterlimit="10" stroke-width="1"/>
    <rect id="Rectangle_32" data-name="Rectangle 32" width="248.539" height="28.328" rx="14.164" transform="translate(8.699 174.951)" fill="none" stroke="#3f3d56" stroke-miterlimit="10" stroke-width="1"/>
    <circle id="Ellipse_13" data-name="Ellipse 13" cx="13.707" cy="13.707" r="13.707" transform="translate(309.783 77.402)" fill="none" stroke="#3f3d56" stroke-miterlimit="10" stroke-width="1"/>
    <circle id="Ellipse_14" data-name="Ellipse 14" cx="13.707" cy="13.707" r="13.707" transform="translate(309.783 126.747)" fill="none" stroke="#3f3d56" stroke-miterlimit="10" stroke-width="1"/>
    <circle id="Ellipse_15" data-name="Ellipse 15" cx="13.707" cy="13.707" r="13.707" transform="translate(309.783 176.093)" fill="none" stroke="#3f3d56" stroke-miterlimit="10" stroke-width="1"/>
    <path id="Tracé_77" data-name="Tracé 77" d="M715.812,277.731,712.5,274.4a1.759,1.759,0,0,0-2.5-.017l-20.8,20.63-8.8-8.866a1.754,1.754,0,0,0-2.481-.017l-3.349,3.314a1.775,1.775,0,0,0-.017,2.5l13.361,13.465a1.775,1.775,0,0,0,2.5.017l25.385-25.194a1.759,1.759,0,0,0,.017-2.5Z" transform="translate(-364.384 -211.945)" fill="#3499ff"/>
    <path id="Tracé_78" data-name="Tracé 78" d="M715.812,460.486l-3.314-3.331a1.76,1.76,0,0,0-2.5-.017l-20.8,20.631-8.8-8.866a1.754,1.754,0,0,0-2.481-.017l-3.349,3.314a1.775,1.775,0,0,0-.017,2.5l13.361,13.464a1.775,1.775,0,0,0,2.5.017l25.385-25.194a1.759,1.759,0,0,0,.017-2.5Z" transform="translate(-364.384 -295.094)" fill="#3499ff"/>
    <ellipse id="Ellipse_16" data-name="Ellipse 16" cx="83.934" cy="13.081" rx="83.934" ry="13.081" transform="translate(357.118 289.68)" fill="#f2f2f2"/>
    <ellipse id="Ellipse_17" data-name="Ellipse 17" cx="83.934" cy="13.081" rx="83.934" ry="13.081" transform="translate(370.743 284.775)" fill="none" stroke="#3f3d56" stroke-miterlimit="10" stroke-width="1"/>
    <path id="Tracé_79" data-name="Tracé 79" d="M947.3,220.131q-.364-.414-.748-.806c1.967-2.232,4-4.521,3.985-7.389-.022-3.486-3.115-6.161-4.27-9.456-1.572-4.485.609-9.29,1.507-13.951a26.164,26.164,0,0,0-5.674-21.544,7.563,7.563,0,0,0-3.316-2.539c-2.057-.649-4.246.252-6.389.517-7.076.874-13.514-5.223-20.624-4.677a3.834,3.834,0,0,0-1.369.306,5.8,5.8,0,0,0-1.988,2.248c-2.208,3.25-5.917,4.865-9.607,6.534a5.021,5.021,0,0,0-1.311.6c-1.108.516-2.2,1.054-3.229,1.663-6.967,4.123-5.956,9.893-1.848,13.456-.8,4-4.892,7.523-4.188,11.636.552,3.224,3.91,5.419,4.557,8.626a8.657,8.657,0,0,1-1.037,5.4c-7.8,1.8-16.6,5.127-17.29,10.99-1.2,10.2-4.795,38.373-4.795,38.373s-4.169,22.572,11.674,11.9l-.2.6a131.318,131.318,0,0,0-5.815,26.606c-.161,1.346-.483,2.406-1.069,2.752-.213.126.208.324,1.123.573-.1.38-.215.757-.314,1.138a108.131,108.131,0,0,0-3.323,20.151,141.762,141.762,0,0,1-2.489,17.947c-3.752,18.879,0,43.092,0,43.092l8.188,38.553,1.4,6.591a9.793,9.793,0,0,0,3.319,2.4,51.39,51.39,0,0,1,1.138,7.175c.022.269.04.541.057.814a3.424,3.424,0,0,0-2.43,1.517c-2.919,4.1.417,7.387-10.84,15.6-2.908,2.121-4.311,4.049-4.667,5.686h0a3.829,3.829,0,0,0,1.934,4.155l0,0a7.036,7.036,0,0,0,.788.44l.013.006q.206.1.423.188h0q.218.089.445.168l.026.009q.214.074.435.138l.032.009q.23.066.467.123l.041.009q.218.051.441.094l.058.011q.239.044.483.079l.053.007q.219.03.441.052l.084.009q.244.023.491.036l.063,0q.219.01.44.013h.1c.165,0,.33,0,.5-.007l.065,0q.22-.009.441-.025l.117-.009c.165-.014.331-.03.5-.05l.059-.008q.222-.028.444-.065l.123-.021c.165-.029.329-.06.492-.1l.047-.011c.149-.033.3-.069.447-.108l.126-.033c.162-.044.323-.091.483-.142l.026-.009c.152-.049.3-.1.453-.158l.121-.046c.158-.061.315-.123.47-.191,7.5-3.283,22.931-11.9,22.931-11.9v-.5c0-.043,0-.085,0-.133l0-.126c0-.057,0-.114,0-.176,0-.043,0-.089,0-.134,0-.066,0-.129,0-.2q0-.17-.007-.358h0c-.077-3.586-.431-11.825-2.063-11.5-.556.109-.934.891-1.325,1.791-.063-.119-.127-.241-.193-.367-1.589-3.065-3.888-8.324-4.112-13.465a24.1,24.1,0,0,0,3.545-3.144s-.838-3.529-1.551-7.252c-.617-3.226-1.142-6.6-.951-7.933.417-2.873-5-25.035-5-25.035s.559-4.876,1.68-11.651c2.181-13.17,6.475-33.522,12.883-39.276.15-.131.3-.259.446-.373,0,0,4.586.821,8.339,26.676l1.088,11.516A66.838,66.838,0,0,0,914.9,383.7a49.848,49.848,0,0,1,1.046,15.136c-.475,6.788-.679,14.779-.767,20.389-.067,4.227-.067,7.108-.067,7.108a15.738,15.738,0,0,0,2.5,1.728v3.766a3.133,3.133,0,0,1-.878,2.14l-.015.016a5.812,5.812,0,0,0-1.259,2.316,17.067,17.067,0,0,0-1.6,6.861c-.834,11.081-1.251,9.85-1.251,9.85a14.607,14.607,0,0,0-.945,3.737h0c-.024.24-.039.481-.043.723,0,.038,0,.076,0,.114q0,.166.006.331,0,.081.009.162.008.123.021.244t.027.22c.007.052.015.1.024.155q.025.147.059.292c.01.043.021.085.033.128.027.1.055.2.089.3.011.03.023.06.034.09q.049.133.108.261c.012.026.023.052.035.078.049.1.1.195.161.289.016.026.032.052.049.077a3.051,3.051,0,0,0,.2.27c.017.02.034.04.052.059a2.96,2.96,0,0,0,.251.258l.029.024a3.055,3.055,0,0,0,.288.223l.046.033a3.346,3.346,0,0,0,.343.2l.071.035a3.839,3.839,0,0,0,.392.159l.07.022a4.532,4.532,0,0,0,.464.125l.017,0c.162.033.335.059.515.079l.074.009c.178.017.366.027.561.03h.11c.2,0,.4-.005.62-.02l.1-.008c.229-.018.466-.041.717-.076,8.755-1.231,12.925-2.052,12.508-6.977-.251-2.968-.957-7.279-1.478-10.235a15.39,15.39,0,0,0-1.442-4.316q.033-.346.06-.712a15.667,15.667,0,0,0-.475-6.078l.192-3.593a11.457,11.457,0,0,0,5.645-3.384s.063-2.664.246-6.193c.275-5.454.825-12.981,1.839-15.969,1.668-4.925,0-22.162,0-22.162s-6.254-29.549-.417-42.272a38.687,38.687,0,0,0,.152-33.391,1.689,1.689,0,0,0,.265-.262s-1.251-.821-.834-10.26c.318-7.2-1.791-14.642-2.808-17.763a43.452,43.452,0,0,0,4.893,1.757c9.589,2.873,10.423-7.8,10.423-7.8l2.083-16.006,2.472-23.858h0C951.2,230.283,952.1,225.608,947.3,220.131Zm-42.384-15.814c-.012.264-.03.528-.056.791a10.619,10.619,0,0,1-.534,2.492,16.558,16.558,0,0,0,.517-3.329l.074.047Zm25.206,58.264c.148.271.289.535.424.794l-1.053-.538a23.587,23.587,0,0,1,1.88-5.592,39.587,39.587,0,0,0,2.548-6.443,64.326,64.326,0,0,0,.37,7.674C935.122,265.043,930.119,262.58,930.119,262.58Z" transform="translate(-451.41 -160.25)" fill="url(#linear-gradient)"/>
    <path id="Tracé_80" data-name="Tracé 80" d="M914.218,181.915c-1.333.909-2.726,1.959-3.2,3.5-.765,2.487,1.155,4.984,1.345,7.578.345,4.718-4.991,8.618-4.2,13.283.539,3.2,3.817,5.374,4.448,8.555.921,4.639-4.107,8.73-3.712,13.442.211,2.51,1.957,4.642,3.938,6.2a19.167,19.167,0,0,0,9.617,3.946c-.233-4.035-3.226-7.707-2.713-11.716.352-2.749,2.286-5,3.406-7.533,1.965-4.452,1.336-9.605.157-14.327s-2.88-9.389-2.966-14.255c-.052-2.929,1.323-7.234.315-10.013C919.424,177.2,916.5,180.358,914.218,181.915Z" transform="translate(-470.864 -168.815)" fill="#3f3d56"/>
    <path id="Tracé_81" data-name="Tracé 81" d="M914.218,182.121c-1.333.909-2.726,1.959-3.2,3.5-.765,2.487,1.155,4.984,1.345,7.578.345,4.718-4.991,8.618-4.2,13.283.539,3.2,3.817,5.374,4.448,8.555.921,4.639-4.107,8.73-3.712,13.442.211,2.51,1.957,4.642,3.938,6.2a19.168,19.168,0,0,0,9.617,3.946c-.233-4.035-3.226-7.707-2.713-11.716.352-2.749,2.286-5,3.406-7.533,1.965-4.452,1.336-9.605.157-14.327s-2.88-9.389-2.966-14.255c-.052-2.929,1.323-7.234.315-10.013C919.424,177.4,916.5,180.564,914.218,182.121Z" transform="translate(-470.864 -168.908)" opacity="0.1"/>
    <path id="Tracé_82" data-name="Tracé 82" d="M912.229,666.444l-3.663,3.663s-13.024,6.919-11.4-2.442a33.681,33.681,0,0,0,.281-8.417,52.325,52.325,0,0,0-2.316-11.526l12.211-2.442c-2.031,6.382,1.315,14.416,3.4,18.507C911.59,665.435,912.229,666.444,912.229,666.444Z" transform="translate(-464.974 -380.927)" fill="#ffb9b9"/>
    <path id="Tracé_83" data-name="Tracé 83" d="M967.715,656.663a37.19,37.19,0,0,1-.464,3.741s-10.175,6.919-10.989-.814c-.529-5.039.667-7.314,1.571-8.287l.014-.016a3.133,3.133,0,0,0,.857-2.122v-9.112l8.954,2.849-.407,7.733A15.787,15.787,0,0,1,967.715,656.663Z" transform="translate(-492.727 -378.549)" fill="#ffb9b9"/>
    <path id="Tracé_84" data-name="Tracé 84" d="M913.81,678.073l-3.663,3.663s-13.024,6.919-11.4-2.442a33.685,33.685,0,0,0,.281-8.417c2.853-.419,6.231,2.719,6.231,2.719,4.77,6.732,6.056,4.184,7.066,1.819C913.171,677.063,913.81,678.073,913.81,678.073Z" transform="translate(-466.555 -392.556)" opacity="0.05"/>
    <path id="Tracé_85" data-name="Tracé 85" d="M890.967,675.087s-5.7-5.291-8.547-1.221.407,7.326-10.582,15.466,0,13.431,7.326,10.175,22.385-11.8,22.385-11.8,0-13.431-2.035-13.024S897.886,684.856,890.967,675.087Z" transform="translate(-452.259 -393.233)" fill="#3f3d56"/>
    <path id="Tracé_86" data-name="Tracé 86" d="M967.715,665.644a37.182,37.182,0,0,1-.464,3.74s-10.175,6.919-10.989-.814c-.529-5.039.667-7.314,1.571-8.287a2.431,2.431,0,0,1,2.5-.26c1.628-.725,3.419.484,4.9,2.047A14.384,14.384,0,0,1,967.715,665.644Z" transform="translate(-492.727 -387.53)" opacity="0.05"/>
    <path id="Tracé_87" data-name="Tracé 87" d="M957.593,661.516s-4.477-2.442-5.291,8.547-1.221,9.768-1.221,9.768-4.07,9.768,4.477,8.547,12.617-2.035,12.21-6.919c-.245-2.944-.934-7.218-1.443-10.15a14.923,14.923,0,0,0-3.831-7.748C961.01,662,959.221,660.792,957.593,661.516Z" transform="translate(-489.988 -388.209)" fill="#3f3d56"/>
    <path id="Tracé_88" data-name="Tracé 88" d="M936.359,494.251s1.628,17.094,0,21.978c-.989,2.963-1.526,10.428-1.795,15.837-.179,3.5-.24,6.142-.24,6.142-7.733,8.14-16.687,0-16.687,0s0-2.857.065-7.049c.085-5.564.285-13.488.749-20.22a50.193,50.193,0,0,0-1.022-15.011,67.247,67.247,0,0,1-1.579-9.386l-1.062-11.421c-3.663-25.642-8.14-26.456-8.14-26.456-.147.114-.289.24-.435.37-6.256,5.706-10.448,25.89-12.577,38.951-1.095,6.72-1.64,11.555-1.64,11.555s5.291,21.978,4.884,24.828c-.187,1.323.326,4.668.928,7.867.7,3.692,1.514,7.192,1.514,7.192-10.175,10.989-17.094,2.442-17.094,2.442l-1.368-6.537L872.866,497.1s-3.663-24.014,0-42.736a142.647,142.647,0,0,0,2.43-17.8,108.8,108.8,0,0,1,3.244-19.984q.745-2.906,1.652-5.767a200.78,200.78,0,0,1,29.675-2.658c10.794,0,21.083,1.494,24.05,6.728q1.026,1.807,1.864,3.622a38.985,38.985,0,0,1,.171,33.822C930.254,464.947,936.359,494.251,936.359,494.251Z" transform="translate(-454.102 -273.042)" fill="#3f3d56"/>
    <path id="Tracé_89" data-name="Tracé 89" d="M918.5,258.611s-21.571-21.978-5.291-20.35c3.692.37,6.191-.289,7.847-1.526a7.884,7.884,0,0,0,2.9-5.816,24,24,0,0,0-1.388-9.345s21.978-17.5,17.5,4.477a37.475,37.475,0,0,0-.855,6.793c-.073,4.664,1.461,6.451,3.614,7.184,3.63,1.241,9.027-.5,11.486,3.525C958.793,250.878,918.5,258.611,918.5,258.611Z" transform="translate(-470.432 -185.146)" fill="#ffb9b9"/>
    <path id="Tracé_90" data-name="Tracé 90" d="M918.5,258.611s-21.571-21.978-5.291-20.35c3.692.37,6.191-.289,7.847-1.526a7.884,7.884,0,0,0,2.9-5.816,24,24,0,0,0-1.388-9.345s21.978-17.5,17.5,4.477a37.475,37.475,0,0,0-.855,6.793c-.073,4.664,1.461,6.451,3.614,7.184,3.63,1.241,9.027-.5,11.486,3.525C958.793,250.878,918.5,258.611,918.5,258.611Z" transform="translate(-470.432 -185.146)" opacity="0.1"/>
    <path id="Tracé_91" data-name="Tracé 91" d="M958.515,201.276a17.5,17.5,0,0,1-35,0c0-.326.008-.651.029-.973a17.5,17.5,0,0,1,34.974.973Z" transform="translate(-477.885 -170.954)" fill="#ffb9b9"/>
    <path id="Tracé_92" data-name="Tracé 92" d="M918.5,276.781s-21.571-21.978-5.291-20.35c3.692.37,6.191-.289,7.847-1.526-3.15,5.226-6.7,14.624,9.247,13.737,14.591-.81,14.343-6.626,12.528-10.444,3.63,1.241,9.027-.5,11.486,3.525C958.793,269.047,918.5,276.781,918.5,276.781Z" transform="translate(-470.432 -203.315)" opacity="0.05"/>
    <path id="Tracé_93" data-name="Tracé 93" d="M942.455,420.176c-3.7,4.815-50.917-1.5-57.82-3.594q.745-2.906,1.653-5.767a200.78,200.78,0,0,1,29.675-2.658c10.794,0,21.083,1.494,24.05,6.728q1.025,1.807,1.864,3.622C942.137,419.964,942.455,420.176,942.455,420.176Z" transform="translate(-460.197 -273.042)" opacity="0.1"/>
    <path id="Tracé_94" data-name="Tracé 94" d="M907.942,250.983s-27.473,2.239-28.694,12.821c-1.167,10.116-4.681,38.055-4.681,38.055s-4.07,22.386,11.4,11.8l-.2.6a132.016,132.016,0,0,0-5.677,26.386c-.157,1.334-.472,2.386-1.044,2.73-2.035,1.221,54.539,9.361,58.61,4.07,0,0-1.221-.814-.814-10.175s-3.256-19.129-3.256-19.129-3.256-9.768,1.221-19.129,2.849-12.21,2.849-12.21L953.121,275s3.34-5.726-2.766-12.794a21.153,21.153,0,0,0-14.537-7.163l-10.668-.759s11.691,12.575-10.288,13.8S907.942,250.983,907.942,250.983Z" transform="translate(-455.396 -201.531)" fill="#575a89"/>
    <path id="Tracé_95" data-name="Tracé 95" d="M900.773,292.056s.814,6.512-.814,8.547-2.035,11.4,0,17.094" transform="translate(-466.542 -220.219)" opacity="0.05"/>
    <path id="Tracé_96" data-name="Tracé 96" d="M924.525,475.379c-6.256,5.706-10.448,25.89-12.577,38.951-2.963-18.181,9.349-48.275,9.349-48.275Z" transform="translate(-472.415 -299.384)" opacity="0.1"/>
    <path id="Tracé_97" data-name="Tracé 97" d="M907.353,643.01c-10.175,10.989-17.094,2.442-17.094,2.442l-1.367-6.537c3.846,2,10.346,3.549,16.948-3.1C906.535,639.51,907.353,643.01,907.353,643.01Z" transform="translate(-462.134 -376.623)" opacity="0.1"/>
    <path id="Tracé_98" data-name="Tracé 98" d="M973.3,634.747c-.179,3.5-.24,6.142-.24,6.142-7.733,8.14-16.687,0-16.687,0s0-2.857.065-7.049A16.773,16.773,0,0,0,973.3,634.747Z" transform="translate(-492.835 -375.722)" opacity="0.1"/>
    <rect id="Rectangle_33" data-name="Rectangle 33" width="27.677" height="11.396" rx="3.75" transform="translate(436.265 85.675)" fill="#cdd0db"/>
    <rect id="Rectangle_34" data-name="Rectangle 34" width="27.677" height="11.396" rx="3.75" transform="translate(436.265 85.675)" opacity="0.05"/>
    <rect id="Rectangle_35" data-name="Rectangle 35" width="27.677" height="11.396" rx="3.75" transform="translate(436.265 86.083)" fill="#3f3d56"/>
    <circle id="Ellipse_18" data-name="Ellipse 18" cx="1.221" cy="1.221" r="1.221" transform="translate(456.82 90.356)" fill="#9da7c0"/>
    <path id="Tracé_99" data-name="Tracé 99" d="M884.443,338.909a7.915,7.915,0,0,1,4.6-4.844,7.217,7.217,0,0,0,3.948-3.545c1.605-3.553,4.454-7.216,11.781-4.774s-2.035,4.07-2.035,4.07,16.687-2.442,10.175,2.442a62.34,62.34,0,0,1-14.652,7.733l-4.008,4.244a5.991,5.991,0,0,1-8.948-.177A5.184,5.184,0,0,1,884.443,338.909Z" transform="translate(-459.956 -235.187)" opacity="0.05"/>
    <path id="Tracé_100" data-name="Tracé 100" d="M883.7,337.415a7.915,7.915,0,0,1,4.6-4.844,7.216,7.216,0,0,0,3.948-3.544c1.605-3.553,4.454-7.216,11.78-4.774s-2.035,4.07-2.035,4.07,16.687-2.442,10.175,2.442A62.34,62.34,0,0,1,897.51,338.5l-4.008,4.244a5.991,5.991,0,0,1-8.948-.178A5.184,5.184,0,0,1,883.7,337.415Z" transform="translate(-459.616 -234.507)" fill="#ffb9b9"/>
    <path id="Tracé_101" data-name="Tracé 101" d="M965.9,347.778l-2.849,6.919-3.647-2.682-10.192-7.493-6.919-4.477c-9.768-7.326,0-8.547,0-8.547-3.663-1.628,0-3.256,0-3.256,13.024-2.849,10.582,7.733,10.582,7.733l8.25,4.278,2.739,1.42Z" transform="translate(-484.454 -236.46)" opacity="0.05"/>
    <path id="Tracé_102" data-name="Tracé 102" d="M967.391,346.284l-2.849,6.919-3.647-2.682L950.7,343.028l-6.919-4.477c-9.768-7.326,0-8.547,0-8.547-3.663-1.628,0-3.256,0-3.256,13.024-2.849,10.582,7.733,10.582,7.733l8.25,4.278,2.739,1.421Z" transform="translate(-485.134 -235.781)" fill="#ffb9b9"/>
    <path id="Tracé_103" data-name="Tracé 103" d="M985.3,356.717l-2.849,6.919-3.647-2.682c3.3.118,7.2-1.477,1.722-11.763l2.739,1.42Z" transform="translate(-503.042 -246.214)" opacity="0.05"/>
    <path id="Tracé_104" data-name="Tracé 104" d="M998.3,287.575l.786,3.2-2.414,23.66-2.035,15.873s-.814,10.582-10.175,7.733-10.175-5.7-10.175-5.7,13.431,4.477,4.884-11.4c0,0,4.884,2.442,4.07-4.07s0-17.908,0-17.908Z" transform="translate(-500.988 -218.18)" fill="#575a89"/>
    <path id="Tracé_105" data-name="Tracé 105" d="M958.539,201.277a17.5,17.5,0,0,1-13.631,17.07,8.856,8.856,0,0,1-.574-5.092c.826-3.325,4.664-5.751,4.237-9.15a2.252,2.252,0,0,0-.387-1.066c-.859-1.131-2.609-.57-4-.289a7.613,7.613,0,0,1-8.515-5.25,11.9,11.9,0,0,1-12.1,2.8,17.5,17.5,0,0,1,34.974.973Z" transform="translate(-477.909 -170.954)" opacity="0.05"/>
    <path id="Tracé_106" data-name="Tracé 106" d="M929.874,187.055a7.607,7.607,0,0,0,8.511,5.248c1.393-.278,3.143-.84,4,.292a2.2,2.2,0,0,1,.386,1.063c.431,3.4-3.408,5.825-4.235,9.152-.851,3.426,1.645,6.734,2.176,10.224a41.56,41.56,0,0,1,.005,5.785,7.137,7.137,0,0,0,1.887,5.3c1.431,1.3,4.077,1.309,5.036-.367,4.58,2.42,2.751,9.921,6.229,13.76,1.918,2.117,5.073,2.627,7.917,2.355a3.34,3.34,0,0,0,1.861-.6,3.235,3.235,0,0,0,.91-1.711,13.882,13.882,0,0,0-.354-8.233c-.457-1.264-1.111-2.543-.942-3.876a5.737,5.737,0,0,1,1.412-2.766c2.187-2.711,5.171-5.332,5.149-8.814-.022-3.457-3.041-6.11-4.169-9.378-1.535-4.448.6-9.213,1.471-13.836a26.246,26.246,0,0,0-5.539-21.366,7.4,7.4,0,0,0-3.237-2.518c-2.009-.643-4.145.25-6.237.513-6.908.867-13.193-5.18-20.133-4.639a3.7,3.7,0,0,0-1.336.3,5.725,5.725,0,0,0-1.94,2.229c-3.064,4.58-9.088,5.886-13.81,8.725C901.1,182.195,919.327,197.207,929.874,187.055Z" transform="translate(-471.706 -161.323)" fill="#3f3d56"/>
    <path id="Tracé_107" data-name="Tracé 107" d="M879.167,709.368c-4.756,2.114-11.054.624-11.882-2.908-1,4.663,6.448,6.951,11.882,4.536,7.326-3.256,22.386-11.8,22.386-11.8s0-.632-.021-1.616C901.092,697.825,886.383,706.16,879.167,709.368Z" transform="translate(-452.262 -404.721)" fill="#fff" opacity="0.3"/>
    <path id="Tracé_108" data-name="Tracé 108" d="M967.749,697.871c-.469,3.661-4.53,4.431-12.189,5.525-3.895.556-5.166-1.17-5.4-3.213-.255,2.617.489,5.543,5.4,4.841,8.547-1.221,12.617-2.035,12.21-6.919C967.764,698.03,967.756,697.949,967.749,697.871Z" transform="translate(-489.99 -404.855)" fill="#fff" opacity="0.3"/>
    <g id="Groupe_4" data-name="Groupe 4" transform="translate(438.227 1.418)" opacity="0.1">
      <path id="Tracé_109" data-name="Tracé 109" d="M963.421,248.367c-2.844.271-6-.238-7.917-2.355-3.478-3.839-1.649-11.34-6.229-13.76-.959,1.676-3.6,1.663-5.036.367a7.138,7.138,0,0,1-1.887-5.3,41.561,41.561,0,0,0-.005-5.785c-.531-3.49-3.027-6.8-2.176-10.224.827-3.327,4.665-5.751,4.235-9.152a2.2,2.2,0,0,0-.386-1.063c-.859-1.132-2.608-.57-4-.292a7.606,7.606,0,0,1-8.511-5.248c-9.428,9.074-24.988-1.957-18.334-10.324-10.382,8.438,6.651,21.63,16.706,11.952a7.606,7.606,0,0,0,8.511,5.248c1.393-.278,3.143-.84,4,.292a2.2,2.2,0,0,1,.386,1.063c.431,3.4-3.408,5.825-4.235,9.152-.851,3.426,1.645,6.734,2.176,10.224a41.542,41.542,0,0,1,.005,5.785,7.137,7.137,0,0,0,1.887,5.3c1.431,1.3,4.077,1.309,5.036-.367,4.58,2.42,2.751,9.921,6.229,13.76,1.918,2.117,5.073,2.627,7.917,2.355a3.34,3.34,0,0,0,1.861-.6,2.653,2.653,0,0,0,.751-1.192A5.7,5.7,0,0,1,963.421,248.367Z" transform="translate(-909.935 -173.033)"/>
      <path id="Tracé_110" data-name="Tracé 110" d="M945.5,163.493c.14-.209.275-.426.414-.642-.033.014-.069.025-.1.041a5.724,5.724,0,0,0-1.94,2.229q-.286.428-.606.819A11.633,11.633,0,0,0,945.5,163.493Z" transform="translate(-925.098 -162.851)"/>
    </g>
    <path id="Tracé_111" data-name="Tracé 111" d="M906.288,372.935s-1.053,3.663,5.866,5.291S906.288,372.935,906.288,372.935Z" transform="translate(-470.023 -257.017)" opacity="0.1"/>
    <path id="Tracé_112" data-name="Tracé 112" d="M900.172,392.849s-3.532,2.578,4.988,7.055S900.172,392.849,900.172,392.849Z" transform="translate(-466.936 -266.077)" opacity="0.1"/>
    <path id="Tracé_113" data-name="Tracé 113" d="M886.232,465.333s9.589-2.713,10.9-6.783S886.232,465.333,886.232,465.333Z" transform="translate(-460.924 -295.554)" opacity="0.1"/>
    <path id="Tracé_114" data-name="Tracé 114" d="M886.232,566.349s4.131,2.035,6.746,1.764S886.232,566.349,886.232,566.349Z" transform="translate(-460.924 -345.016)" opacity="0.1"/>
    <path id="Tracé_115" data-name="Tracé 115" d="M888.892,576.8a13.832,13.832,0,0,0,5.3,1.085C897.618,578.025,888.892,576.8,888.892,576.8Z" transform="translate(-462.134 -349.772)" opacity="0.1"/>
    <path id="Tracé_116" data-name="Tracé 116" d="M1012.956,591.744a8.464,8.464,0,1,0,1.127-16.232l.212,4.356-2.061-3.733a8.432,8.432,0,0,0-4.345,4.767,8.3,8.3,0,0,0-.487,2.289,8.462,8.462,0,0,0,5.554,8.552Z" transform="translate(-516.044 -349.1)" fill="#3499ff"/>
    <path id="Tracé_117" data-name="Tracé 117" d="M1034.989,636.2c-.728-3.7,2.425-6.989,5.539-9.124s6.753-4.232,7.815-7.855c1.527-5.207-3.022-9.975-6.562-14.087a50.938,50.938,0,0,1-6.719-9.986,13.749,13.749,0,0,1-1.607-4.541,15.674,15.674,0,0,1,1.209-6.806q3.733-11,7.982-21.817" transform="translate(-527.879 -343.028)" fill="none" stroke="#3f3d56" stroke-miterlimit="10" stroke-width="1"/>
    <path id="Tracé_118" data-name="Tracé 118" d="M1013.586,589.686a8.464,8.464,0,1,0,1.127-16.232l.212,4.356-2.061-3.733a8.432,8.432,0,0,0-4.344,4.767,8.31,8.31,0,0,0-.487,2.289A8.462,8.462,0,0,0,1013.586,589.686Z" transform="translate(-516.33 -348.164)" fill="none" stroke="#3f3d56" stroke-miterlimit="10" stroke-width="1"/>
    <path id="Tracé_119" data-name="Tracé 119" d="M1034,554.565a8.454,8.454,0,0,1,6.092-5.367l.7,4.141,1.292-4.35a8.462,8.462,0,1,1-8.081,5.575Z" transform="translate(-527.922 -337.118)" fill="#3499ff"/>
    <path id="Tracé_120" data-name="Tracé 120" d="M1034.847,551.821a8.454,8.454,0,0,1,6.094-5.367l.7,4.141,1.292-4.349a8.463,8.463,0,1,1-8.081,5.575Z" transform="translate(-528.31 -335.869)" fill="none" stroke="#3f3d56" stroke-miterlimit="10" stroke-width="1"/>
    <path id="Tracé_121" data-name="Tracé 121" d="M1041.392,627.6a8.463,8.463,0,0,0,7.49-15.055l-.993,3.342-.7-4.19-.021-.008a8.463,8.463,0,0,0-5.772,15.911Z" transform="translate(-528.98 -365.411)" fill="#3499ff"/>
    <path id="Tracé_122" data-name="Tracé 122" d="M1042.133,624.818a8.463,8.463,0,0,0,7.49-15.056l-.993,3.343-.7-4.19-.021-.008a8.463,8.463,0,1,0-5.772,15.911Z" transform="translate(-529.316 -364.147)" fill="none" stroke="#3f3d56" stroke-miterlimit="10" stroke-width="1"/>
    <path id="Tracé_123" data-name="Tracé 123" d="M1029.782,658.809a8.459,8.459,0,1,0,1.631-6.627l3.771,5.676-5.152-3.012a8.384,8.384,0,0,0-.249,3.964Z" transform="translate(-526.177 -382.568)" fill="#3499ff"/>
    <path id="Tracé_124" data-name="Tracé 124" d="M1030.421,656.751a8.459,8.459,0,1,0,1.631-6.628l3.771,5.676-5.152-3.012A8.382,8.382,0,0,0,1030.421,656.751Z" transform="translate(-526.467 -381.631)" fill="none" stroke="#3f3d56" stroke-miterlimit="10" stroke-width="1"/>
    <path id="Tracé_125" data-name="Tracé 125" d="M1014.76,701.739s7.468-2.927,9.719-4.53,11.488-3.516,12.047-.946,11.224,12.784,2.792,12.852-19.592,1.383-21.838.015S1014.76,701.739,1014.76,701.739Z" transform="translate(-519.401 -403.552)" fill="#656380"/>
    <path id="Tracé_126" data-name="Tracé 126" d="M1039.464,713.833c-8.432.068-19.592,1.383-21.838.015-1.711-1.042-2.392-4.781-2.621-6.507l-.249.01s.473,6.023,2.719,7.392,13.407.053,21.838-.015c2.434-.02,3.275-.886,3.229-2.168C1042.205,713.334,1041.273,713.818,1039.464,713.833Z" transform="translate(-519.399 -409.164)" opacity="0.2"/>
  </g>
</svg>
