<svg id="undraw_joyride_hnno" xmlns="http://www.w3.org/2000/svg" width="506.912" height="326.953" viewBox="0 0 506.912 326.953">
  <path id="Tracé_127" data-name="Tracé 127" d="M943.691,607.733l-49.174-85.2a1.565,1.565,0,0,0-2.717,0l-49.188,85.2a1.565,1.565,0,0,0,1.361,2.371h14.673a1.574,1.574,0,0,1,1.57,1.57v18.2a1.565,1.565,0,0,0,1.56,1.57h19.145a1.57,1.57,0,0,0,1.57-1.57v-8.807a1.565,1.565,0,0,1,1.565-1.565h18.2a1.57,1.57,0,0,1,1.57,1.565v8.788a1.57,1.57,0,0,0,1.57,1.57h19.14a1.584,1.584,0,0,0,1.574-1.57v-18.2a1.57,1.57,0,0,1,1.57-1.57h14.673a1.57,1.57,0,0,0,1.337-2.352Zm-68.56,9.428a1.585,1.585,0,0,1-1.115.474h-6.9a1.57,1.57,0,0,1,0-3.139h6.9a1.565,1.565,0,0,1,1.57,1.57A1.585,1.585,0,0,1,875.131,617.161Zm45.181,0a1.56,1.56,0,0,1-1.11.474h-6.9a1.57,1.57,0,0,1,0-3.139h6.9a1.565,1.565,0,0,1,1.11,2.679Z" transform="translate(-474.007 -324.243)" fill="#f2f2f2"/>
  <path id="Tracé_128" data-name="Tracé 128" d="M310.292,609.324l-49.183-85.192a1.574,1.574,0,0,0-2.722,0L215.9,597.715a130.041,130.041,0,0,0,17.8,18.358h6.91a1.57,1.57,0,0,1,1.11,2.679,1.541,1.541,0,0,1-1.11.474h-2.921a76.011,76.011,0,0,0,11.382,7.08v-3.628a1.574,1.574,0,0,1,1.574-1.57h18.2a1.57,1.57,0,0,1,1.57,1.57v8.783a1.46,1.46,0,0,0,.147.659,1.556,1.556,0,0,0,1.423.911h19.145a1.551,1.551,0,0,0,1.247-.631,1.5,1.5,0,0,0,.313-.948v-18.2a1.57,1.57,0,0,1,1.57-1.57h14.673a1.565,1.565,0,0,0,1.366-2.357Zm-32.514,7.208a1.579,1.579,0,0,1,1.114-.474h6.9a1.57,1.57,0,1,1,0,3.139h-6.9a1.565,1.565,0,0,1-1.57-1.57A1.584,1.584,0,0,1,277.778,616.532Zm-30.892-31.527a1.565,1.565,0,0,1-1.57-1.57V571.513a1.565,1.565,0,0,1,1.57-1.57h25.727a1.57,1.57,0,0,1,1.57,1.57v11.922a1.57,1.57,0,0,1-1.57,1.57Z" transform="translate(-144.622 -325.085)" fill="#f2f2f2"/>
  <path id="Tracé_129" data-name="Tracé 129" d="M612.38,346.116H551.507V332.951a3.144,3.144,0,0,0-3.149-3.149H530.484v-14a1.982,1.982,0,0,0-1.982-1.982H505.477a1.982,1.982,0,0,0-1.982,1.982v14.023H482.472a3.149,3.149,0,0,0-3.149,3.149v13.132H421.3a.64.64,0,0,0-.635.64V521.521a.64.64,0,0,0,.635.64H459.87a.64.64,0,0,0,.64-.64V498.009a.65.65,0,0,1,.645-.64h16.29a.645.645,0,0,1,.64.64v23.513a.645.645,0,0,0,.635.64H554.95a.645.645,0,0,0,.64-.64V498.009a.645.645,0,0,1,.636-.64H572.52a.645.645,0,0,1,.645.64v23.513a.645.645,0,0,0,.635.64H612.38a.64.64,0,0,0,.636-.64V346.756A.64.64,0,0,0,612.38,346.116ZM453.6,489.2a.635.635,0,0,1-.631.635H429.144a.64.64,0,0,1-.645-.635v-8.138a.645.645,0,0,1,.645-.64H452.97a.64.64,0,0,1,.631.64Zm0-21.028a.635.635,0,0,1-.631.64H429.144a.64.64,0,0,1-.645-.64v-8.133a.64.64,0,0,1,.645-.64H452.97a.635.635,0,0,1,.631.64Zm0-21.023a.64.64,0,0,1-.631.64H429.144a.645.645,0,0,1-.645-.64v-8.138a.645.645,0,0,1,.645-.64H452.97a.64.64,0,0,1,.631.64Zm0-21.028a.635.635,0,0,1-.631.64H429.144a.64.64,0,0,1-.645-.64v-8.133a.64.64,0,0,1,.645-.64H452.97a.635.635,0,0,1,.631.64Zm0-21.023a.64.64,0,0,1-.631.64H429.144a.645.645,0,0,1-.645-.64v-8.138a.64.64,0,0,1,.645-.635H452.97a.635.635,0,0,1,.631.635Zm0-21.023a.635.635,0,0,1-.631.635H429.144a.64.64,0,0,1-.645-.635V375.94a.645.645,0,0,1,.645-.64H452.97a.64.64,0,0,1,.631.64Zm0-21.028a.636.636,0,0,1-.631.64H429.144a.64.64,0,0,1-.645-.64v-8.133a.64.64,0,0,1,.645-.64H452.97a.635.635,0,0,1,.631.64ZM510.092,489.2a.64.64,0,0,1-.645.635H485.621a.636.636,0,0,1-.636-.635v-8.133a.64.64,0,0,1,.636-.64h23.826a.645.645,0,0,1,.645.64Zm0-21.028a.64.64,0,0,1-.645.64H485.621a.635.635,0,0,1-.635-.64v-8.128a.635.635,0,0,1,.635-.64h23.826a.64.64,0,0,1,.645.64Zm0-21.023a.645.645,0,0,1-.645.64H485.621a.64.64,0,0,1-.635-.621v-8.152a.64.64,0,0,1,.635-.64h23.826a.645.645,0,0,1,.645.64Zm0-21.028a.64.64,0,0,1-.645.64H485.621a.636.636,0,0,1-.635-.64v-8.128a.635.635,0,0,1,.635-.64h23.826a.64.64,0,0,1,.645.64Zm0-21.023a.645.645,0,0,1-.645.64H485.621a.64.64,0,0,1-.635-.64v-8.133a.635.635,0,0,1,.635-.635h23.826a.64.64,0,0,1,.645.635Zm0-21.023a.64.64,0,0,1-.645.635H485.621a.635.635,0,0,1-.636-.616V375.94a.64.64,0,0,1,.636-.64h23.826a.645.645,0,0,1,.645.64Zm0-21.028a.64.64,0,0,1-.645.64H485.621a.635.635,0,0,1-.635-.64v-8.128a.635.635,0,0,1,.635-.64h23.826a.64.64,0,0,1,.645.64Zm38.593,126.147a.635.635,0,0,1-.64.635H524.2a.645.645,0,0,1-.645-.636v-8.128a.65.65,0,0,1,.645-.64h23.821a.64.64,0,0,1,.64.64Zm0-21.028a.636.636,0,0,1-.64.64H524.2a.645.645,0,0,1-.645-.64v-8.124a.645.645,0,0,1,.645-.64h23.821a.635.635,0,0,1,.64.64Zm0-21.023a.64.64,0,0,1-.64.64H524.2a.65.65,0,0,1-.645-.64v-8.128a.65.65,0,0,1,.645-.64h23.821a.64.64,0,0,1,.64.64Zm0-21.028a.635.635,0,0,1-.64.64H524.2a.645.645,0,0,1-.645-.64v-8.124a.645.645,0,0,1,.645-.64h23.821a.635.635,0,0,1,.64.64Zm0-21.023a.64.64,0,0,1-.64.64H524.2a.65.65,0,0,1-.645-.64v-8.128a.645.645,0,0,1,.645-.635h23.821a.635.635,0,0,1,.64.635Zm0-21.023a.635.635,0,0,1-.64.635H524.2a.645.645,0,0,1-.645-.636V375.94a.65.65,0,0,1,.645-.64h23.821a.64.64,0,0,1,.64.64Zm0-21.028a.636.636,0,0,1-.64.64H524.2a.645.645,0,0,1-.645-.64v-8.124a.645.645,0,0,1,.645-.64h23.821a.635.635,0,0,1,.64.64Zm56.491,126.147a.645.645,0,0,1-.645.636H580.706a.631.631,0,0,1-.635-.636v-8.123a.636.636,0,0,1,.636-.64h23.826a.65.65,0,0,1,.645.64Zm0-21.028a.645.645,0,0,1-.645.64H580.706a.636.636,0,0,1-.636-.64v-8.119a.636.636,0,0,1,.636-.64h23.826a.645.645,0,0,1,.645.64Zm0-21.023a.65.65,0,0,1-.645.64H580.706a.636.636,0,0,1-.636-.612v-8.152a.636.636,0,0,1,.636-.64h23.826a.65.65,0,0,1,.645.64Zm0-21.028a.645.645,0,0,1-.645.64H580.706a.636.636,0,0,1-.636-.64v-8.119a.636.636,0,0,1,.636-.64h23.826a.645.645,0,0,1,.645.64Zm0-21.023a.65.65,0,0,1-.645.64H580.706a.636.636,0,0,1-.636-.64v-8.123a.631.631,0,0,1,.636-.635h23.826a.645.645,0,0,1,.645.636Zm0-21.023a.645.645,0,0,1-.645.635H580.706a.631.631,0,0,1-.636-.607V375.94a.636.636,0,0,1,.636-.64h23.826a.65.65,0,0,1,.645.64Zm0-21.028a.645.645,0,0,1-.645.64H580.706a.636.636,0,0,1-.636-.64v-8.119a.636.636,0,0,1,.636-.64h23.826a.645.645,0,0,1,.645.64Z" transform="translate(-252.277 -214.923)" fill="#f2f2f2"/>
  <path id="Tracé_130" data-name="Tracé 130" d="M183.607,322.739a35.3,35.3,0,0,0,2.736-4.022l-19.287-3.168,20.866.157a35.174,35.174,0,0,0,.678-27.852l-27.98,14.512,25.8-18.97a35.155,35.155,0,1,0-58.061,39.362,35.042,35.042,0,0,0-4.007,6.412l25.011,12.985L122.682,333.2a35.184,35.184,0,0,0,5.691,33.012,34.919,34.919,0,0,0-6.3,12.544,350.211,350.211,0,0,0,16.551,39.755,34.807,34.807,0,0,0,10.907,3.988,12.192,12.192,0,0,0-.692,4.083,11.6,11.6,0,0,0,1.48,5.871,11.382,11.382,0,0,0-1.5,5.008h0A216.224,216.224,0,0,0,163.092,458.8a10.787,10.787,0,0,0-1.157-2.845,12.05,12.05,0,0,0,0-11.742,12.05,12.05,0,0,0,0-11.742,11.6,11.6,0,0,0,1.527-5.871,12.041,12.041,0,0,0-.711-4.14,35.155,35.155,0,0,0,20.866-56.23,35.146,35.146,0,0,0,0-43.469Z" transform="translate(-94.64 -189.744)" fill="#f2f2f2"/>
  <path id="Tracé_131" data-name="Tracé 131" d="M1081.441,392.505l-1.423-.232h1.394a60.189,60.189,0,0,0-2.883-15.8l-4.96,2.575,4.667-3.443a60.531,60.531,0,0,0-23.119-30.318,35.283,35.283,0,0,0-13.805,54.182,35.157,35.157,0,0,0-4.007,6.426l25.04,13.042-26.685-8.977a35.321,35.321,0,0,0,5.691,33.083,35.288,35.288,0,0,0,15.6,54.9c1.9-4.5,3.742-9.205,5.468-14.042,1.527-4.268,2.983-8.617,4.353-13.008a399.746,399.746,0,0,0,10.035-39.153c3.035-15.043,4.742-28.189,4.742-36.516C1081.5,394.312,1081.479,393.411,1081.441,392.505Z" transform="translate(-574.638 -231.468)" fill="#f2f2f2"/>
  <ellipse id="Ellipse_19" data-name="Ellipse 19" cx="252.294" cy="11.856" rx="252.294" ry="11.856" transform="translate(0 303.241)" fill="#3f3d56"/>
  <path id="Tracé_132" data-name="Tracé 132" d="M572.859,437.781c-4.714-8.166-24.186-5.762-43.445,5.368a92.556,92.556,0,0,0-9.665,6.407,83.774,83.774,0,0,0-167.159,2.106,89.87,89.87,0,0,0-12.33-8.536c-19.221-11.107-38.7-13.511-43.407-5.345s7.114,23.807,26.372,34.937c12.477,7.2,25.021,10.746,33.6,10.144a83.869,83.869,0,0,0,25.523,37.465C365.457,522.7,353.036,530.6,353.036,540c0,11.258,17.836,20.392,39.836,20.392s39.836-9.134,39.836-20.392v-.09q1.774.076,3.562.081t3.562-.081V540c0,11.258,17.836,20.392,39.836,20.392S519.5,551.256,519.5,540c0-9.4-12.42-17.3-29.313-19.671a83.855,83.855,0,0,0,25.5-37.394c8.389-.218,19.633-3.732,30.826-10.2C565.784,461.587,577.6,445.942,572.859,437.781Z" transform="translate(-186.641 -245.743)" fill="#3499ff"/>
  <path id="Tracé_133" data-name="Tracé 133" d="M296.854,509.118c4.714-8.166,24.186-5.762,43.445,5.368a89.743,89.743,0,0,1,12.145,8.366,27,27,0,0,0,.175-4.126,89.9,89.9,0,0,0-12.33-8.508c-19.249-11.13-38.726-13.535-43.435-5.368a8.981,8.981,0,0,0-.8,6.355A7.588,7.588,0,0,1,296.854,509.118Z" transform="translate(-186.642 -312.812)" opacity="0.1"/>
  <path id="Tracé_134" data-name="Tracé 134" d="M821.018,509.118c-4.714-8.166-24.186-5.762-43.45,5.368a57.619,57.619,0,0,0-9.769,6.469c-.19-4.012-.19.256-.175-4.126a57.726,57.726,0,0,1,9.959-6.611c19.282-11.13,38.736-13.535,43.45-5.368a8.981,8.981,0,0,1,.8,6.355A7.591,7.591,0,0,0,821.018,509.118Z" transform="translate(-434.695 -312.813)" opacity="0.1"/>
  <ellipse id="Ellipse_20" data-name="Ellipse 20" cx="8.688" cy="11.377" rx="8.688" ry="11.377" transform="translate(218.486 182.842)" fill="#444053"/>
  <ellipse id="Ellipse_21" data-name="Ellipse 21" cx="8.688" cy="11.377" rx="8.688" ry="11.377" transform="translate(263.372 182.842)" fill="#444053"/>
  <path id="Tracé_135" data-name="Tracé 135" d="M585.406,581.136c0,16.333-27.283,43.848-54.812,43.848s-53.783-28.136-53.783-44.455,25.7-1.423,53.2-1.423S585.406,564.8,585.406,581.136Z" transform="translate(-281.799 -351.131)" fill="#3f3d56"/>
  <path id="Tracé_136" data-name="Tracé 136" d="M492.165,596.16s49.487,11.016,91.054.313c0,0,5.089,0,1.612,5.881a9.393,9.393,0,0,1-3.794,3.566c-8.015,4.093-37.678,16.2-85.111.764a9.333,9.333,0,0,1-6.184-6.331C489.2,598.356,489.443,596.44,492.165,596.16Z" transform="translate(-288.475 -363.367)" fill="#f6f8fb"/>
  <path id="Tracé_137" data-name="Tracé 137" d="M498.526,383.312a83.768,83.768,0,0,1,83.617,78.8q.237-3.123.237-6.317a83.773,83.773,0,1,0-167.546,0c0,1.674.059,3.32.154,4.984a83.779,83.779,0,0,1,83.537-77.467Z" transform="translate(-249.215 -245.522)" opacity="0.1"/>
  <path id="Tracé_138" data-name="Tracé 138" d="M587.433,155.5a10.737,10.737,0,0,1-21.474,0v-.517a10.737,10.737,0,0,1,21.445,0A3.783,3.783,0,0,1,587.433,155.5Z" transform="translate(-328.671 -126.056)" fill="#3f3d56"/>
  <path id="Tracé_139" data-name="Tracé 139" d="M587.433,162.549a10.737,10.737,0,0,1-21.474,0v-.517a16.949,16.949,0,0,1,21.445,0A3.783,3.783,0,0,1,587.433,162.549Z" transform="translate(-328.671 -133.108)" opacity="0.1"/>
  <circle id="Ellipse_22" data-name="Ellipse 22" cx="16.954" cy="16.954" r="16.954" transform="translate(231.072 26.05)" fill="#3f3d56"/>
  <path id="Tracé_140" data-name="Tracé 140" d="M563.844,150.456a10.742,10.742,0,0,1,9.314-10.642,10.737,10.737,0,1,0,0,21.284A10.742,10.742,0,0,1,563.844,150.456Z" transform="translate(-326.062 -123.387)" fill="#3f3d56"/>
  <path id="Tracé_141" data-name="Tracé 141" d="M542.172,194.918a10.737,10.737,0,0,1-1.807-14.028,10.737,10.737,0,1,0,15.076,15.228,10.3,10.3,0,0,0,.873-1.133A10.732,10.732,0,0,1,542.172,194.918Z" transform="translate(-313.272 -145.033)" fill="#3f3d56"/>
  <path id="Tracé_142" data-name="Tracé 142" d="M565.793,234.107a9.282,9.282,0,0,0-2.509.858c-1.423.982-1.361,3.064-.948,4.742.948,3.794,3.32,7.45,6.91,9.01a16.781,16.781,0,0,0,6.962,1.01c2.575-.028,5.473-.356,7.066-2.371a9.311,9.311,0,0,0,1.446-3.538c.787-3.083,1.579-6.236,1.295-9.4-1.56.138-3.32.228-4.515-.754s-1.508-2.845-2.039-4.406a1.11,1.11,0,0,0-.4-.626,1.214,1.214,0,0,0-.711-.109,28.092,28.092,0,0,1-4.88-.242c-1.01-.133-3.5-1.186-4.268-.3-.555.65-.2,2.608-.626,3.514a4.913,4.913,0,0,1-2.784,2.613Z" transform="translate(-326.63 -169.606)" fill="#ffc1c7"/>
  <path id="Tracé_143" data-name="Tracé 143" d="M565.793,234.107a9.282,9.282,0,0,0-2.509.858c-1.423.982-1.361,3.064-.948,4.742.948,3.794,3.32,7.45,6.91,9.01a16.781,16.781,0,0,0,6.962,1.01c2.575-.028,5.473-.356,7.066-2.371a9.311,9.311,0,0,0,1.446-3.538c.787-3.083,1.579-6.236,1.295-9.4-1.56.138-3.32.228-4.515-.754s-1.508-2.845-2.039-4.406a1.11,1.11,0,0,0-.4-.626,1.214,1.214,0,0,0-.711-.109,28.092,28.092,0,0,1-4.88-.242c-1.01-.133-3.5-1.186-4.268-.3-.555.65-.2,2.608-.626,3.514a4.913,4.913,0,0,1-2.784,2.613Z" transform="translate(-326.63 -169.606)" opacity="0.05"/>
  <path id="Tracé_144" data-name="Tracé 144" d="M368.172,472.664c-3.794.114-7.668-.047-11.382.787a2.917,2.917,0,0,0-1.84.948,2.658,2.658,0,0,0,.194,2.7,8.4,8.4,0,0,0,4.8,3.988c2.257.721,4.69.446,7.052.522a23.589,23.589,0,0,1,9.3,2.238,3.761,3.761,0,0,0,2.091.555c1.048-.161,1.7-1.209,2.091-2.2a26.789,26.789,0,0,0,1.048-3.637c.55-2.338.626-6.957-2.585-7.588-1.47-.284-3.2.73-4.614,1.024A34.344,34.344,0,0,1,368.172,472.664Z" transform="translate(-217.574 -297.528)" fill="#444053"/>
  <path id="Tracé_145" data-name="Tracé 145" d="M784.219,447.918a4.372,4.372,0,0,0,2.215-1.7c1.423-2.072,1.423-4.548,2.177-6.82.948-2.955,3.049-5.392,4.368-8.2a16.962,16.962,0,0,0,1.584-8.062,1.423,1.423,0,0,0-1.665-1.328,8.03,8.03,0,0,0-4.548,3.12c-1.465,1.9-2.423,4.154-3.927,6.028s-3.614,3.377-5.4,5.1c-2.243,2.163-4,4.515-2,7.322C778.647,445.68,780.895,449.009,784.219,447.918Z" transform="translate(-439.179 -271.687)" fill="#444053"/>
  <path id="Tracé_146" data-name="Tracé 146" d="M471.805,343.741a152.367,152.367,0,0,1-43.63,38.494c-5.164,3.03-10.552,5.781-15.142,9.627a80,80,0,0,0-9.371,9.883,2.371,2.371,0,0,0-.664,1.214,2.33,2.33,0,0,0,.175.977c.948,2.8,2.049,5.833,4.581,7.36,6.563-9.485,19.6-11.937,29.607-17.675a132.369,132.369,0,0,0,13.169-9.181q9.3-6.957,19-13.331c4.292-2.817,8.712-5.587,13.634-7.052,10.433-3.12,21.815,0,31.451,5.122s18.121,12.122,27.563,17.57c12.833,7.4,27.15,11.761,41.325,16.062.507-3.405.816-6.744,1.536-10.111a42.364,42.364,0,0,1-10.182-3.268,60.381,60.381,0,0,1-10.7-5.326c-2.186-1.48-4.173-3.244-6.336-4.742-4.714-3.32-10.177-5.406-14.953-8.626-6.222-4.192-11.035-10.125-16.726-15.014-2.48-2.129-5.117-4.059-7.759-5.985a39.64,39.64,0,0,0-8.655-5.25c-3.737-1.475-7.815-1.778-11.823-2.063C488.944,341.764,480.3,340.882,471.805,343.741Z" transform="translate(-242.991 -229.611)" fill="#575a89"/>
  <circle id="Ellipse_23" data-name="Ellipse 23" cx="11.856" cy="11.856" r="11.856" transform="translate(235.933 39.328)" fill="#ffc1c7"/>
  <path id="Tracé_147" data-name="Tracé 147" d="M561.743,251.253a14.227,14.227,0,0,1-5.985-2.181,8.716,8.716,0,0,1-3.647-5.093c-.384-1.674-.171-3.481-.844-5.055a45.25,45.25,0,0,1-6.639,2.694,10.712,10.712,0,0,0-3.671,1.622c-2.243,1.826-2.371,5.145-2.31,8.034a5.338,5.338,0,0,0,.213,1.693,4.267,4.267,0,0,0,.925,1.394c2.438,2.608,6.227,3.69,8.536,6.426a9.148,9.148,0,0,0-2.234,4.818,17.038,17.038,0,0,1-.3,2.144,13.229,13.229,0,0,1-.7,1.7c-1.5,3.415-1.446,7.275-1.674,10.993s-.873,7.678-3.386,10.433a5.609,5.609,0,0,0,3.846,1.56c1.475.138,3-.057,4.505,0,3.965.114,7.706,1.736,11.529,2.793s8.162,1.489,11.543-.583c1.186-.726,2.191-1.726,3.381-2.442a16.647,16.647,0,0,1,4.742-1.679l.593-19.8a33.656,33.656,0,0,1,.3-4.15c.858-5.416,4.315-10,7.664-14.341a13.122,13.122,0,0,0-6.018-9.769,25.776,25.776,0,0,0-4.742-2.2l-3.9-1.5a2.172,2.172,0,0,0-1.11-.209c-.844.152-1.167,1.181-1.214,2.034-.076,1.347.123,2.7.076,4.045a5.477,5.477,0,0,1-1.337,3.723,6.431,6.431,0,0,1-2.371,1.347C565.523,250.461,563.844,251.566,561.743,251.253Z" transform="translate(-314.305 -175.347)" fill="#ff6584"/>
  <path id="Tracé_148" data-name="Tracé 148" d="M545.57,353.018a34.808,34.808,0,0,1-.133,7.92,11.827,11.827,0,0,1-3.519,6.943c-1.532,1.352-3.685,2.371-4.064,4.4a2.371,2.371,0,0,0,.1,1.328,2.523,2.523,0,0,0,2.732,1.276,6.369,6.369,0,0,0,2.845-1.489,62.844,62.844,0,0,0,4.714-4.268,11.253,11.253,0,0,0,3.249-4.4,10.868,10.868,0,0,0,.384-2.57c.308-4.742.389-9.485.474-14.227.057-3.452.095-7.014-1.176-10.225.19.474-4.429.925-4.78.948-1.992.175-1.612,1-1.5,2.874Q545.233,347.289,545.57,353.018Z" transform="translate(-313.867 -227.478)" fill="#ffc1c7"/>
  <path id="Tracé_149" data-name="Tracé 149" d="M619.453,353.018a34.808,34.808,0,0,0,.133,7.92,11.827,11.827,0,0,0,3.519,6.943c1.532,1.352,3.685,2.371,4.064,4.4a2.37,2.37,0,0,1-.1,1.328,2.523,2.523,0,0,1-2.732,1.276,6.369,6.369,0,0,1-2.845-1.489,62.856,62.856,0,0,1-4.714-4.268,11.252,11.252,0,0,1-3.248-4.4,10.865,10.865,0,0,1-.384-2.57c-.308-4.742-.389-9.485-.474-14.227-.057-3.452-.095-7.014,1.176-10.225-.19.474,4.429.925,4.78.948,1.992.175,1.612,1,1.5,2.874Q619.808,347.289,619.453,353.018Z" transform="translate(-353.216 -227.478)" fill="#ffc1c7"/>
  <path id="Tracé_150" data-name="Tracé 150" d="M540.561,261.7c-1.674,4.942-1,10.433.716,15.351a8,8,0,0,1,.711,3.737,11.765,11.765,0,0,1-.588,1.9,8.981,8.981,0,0,0-.256,4.6,2.883,2.883,0,0,0,.526,1.271,5.9,5.9,0,0,1,.474.55c.65,1.015-.626,2.272-.474,3.471.114,1,1.124,1.584,1.831,2.3,2,2.025,1.612,5.321,1.091,8.119,2.423-.213,4.515-2.2,6.943-2.034a4.154,4.154,0,0,1,3.576,2.755c-.09-2.348.745-4.349.948-6.692.27-3.049-1.7-5.781-2.656-8.683-1.39-4.23-.607-8.826-.948-13.279a44.365,44.365,0,0,0-.721-4.927c-.432-2.229-1.062-4.666-2.95-5.933C546.352,262.592,542.69,263.739,540.561,261.7Z" transform="translate(-314.81 -187.52)" opacity="0.1"/>
  <path id="Tracé_151" data-name="Tracé 151" d="M539.561,259.7c-1.674,4.942-1,10.433.716,15.351a8,8,0,0,1,.711,3.737,11.754,11.754,0,0,1-.588,1.9,8.983,8.983,0,0,0-.256,4.6,2.884,2.884,0,0,0,.526,1.271,5.9,5.9,0,0,1,.474.55c.65,1.015-.626,2.272-.474,3.471.114,1,1.124,1.584,1.831,2.3,2,2.025,1.612,5.321,1.091,8.119,2.423-.213,4.515-2.2,6.943-2.034a4.154,4.154,0,0,1,3.576,2.755c-.09-2.348.745-4.349.948-6.691.27-3.049-1.7-5.781-2.656-8.683-1.389-4.23-.607-8.826-.948-13.279a44.379,44.379,0,0,0-.721-4.927c-.432-2.229-1.062-4.666-2.95-5.933C545.352,260.592,541.69,261.739,539.561,259.7Z" transform="translate(-314.284 -186.468)" fill="#ff6584"/>
  <path id="Tracé_152" data-name="Tracé 152" d="M622.37,261.7c1.674,4.942,1,10.433-.716,15.351a8,8,0,0,0-.711,3.737,11.759,11.759,0,0,0,.588,1.9,8.981,8.981,0,0,1,.256,4.6,2.883,2.883,0,0,1-.526,1.271,5.922,5.922,0,0,0-.474.55c-.65,1.015.626,2.272.474,3.471-.114,1-1.124,1.584-1.831,2.3-2,2.025-1.612,5.321-1.091,8.119-2.423-.213-4.515-2.2-6.943-2.034a4.154,4.154,0,0,0-3.576,2.755c.09-2.348-.745-4.349-.948-6.692-.27-3.049,1.7-5.781,2.656-8.683,1.39-4.23.607-8.826.948-13.279a44.383,44.383,0,0,1,.711-4.9c.432-2.229,1.062-4.666,2.95-5.933C616.58,262.592,620.241,263.739,622.37,261.7Z" transform="translate(-350.168 -187.52)" opacity="0.1"/>
  <path id="Tracé_153" data-name="Tracé 153" d="M623.37,259.7c1.674,4.942,1,10.433-.716,15.351a8,8,0,0,0-.711,3.737,11.754,11.754,0,0,0,.588,1.9,8.981,8.981,0,0,1,.256,4.6,2.883,2.883,0,0,1-.526,1.271,5.944,5.944,0,0,0-.474.55c-.65,1.015.626,2.272.474,3.471-.114,1-1.124,1.584-1.831,2.3-2,2.025-1.612,5.321-1.091,8.119-2.423-.213-4.515-2.2-6.943-2.034a4.154,4.154,0,0,0-3.576,2.755c.09-2.348-.745-4.349-.948-6.691-.27-3.049,1.7-5.781,2.656-8.683,1.389-4.23.607-8.826.948-13.279a44.357,44.357,0,0,1,.711-4.9c.432-2.229,1.062-4.666,2.95-5.933C617.58,260.592,621.241,261.739,623.37,259.7Z" transform="translate(-350.693 -186.468)" fill="#ff6584"/>
  <ellipse id="Ellipse_24" data-name="Ellipse 24" cx="14.227" cy="9.485" rx="14.227" ry="9.485" transform="translate(233.325 30.555)" fill="#3f3d56"/>
  <path id="Tracé_154" data-name="Tracé 154" d="M561.548,288.359a6.639,6.639,0,0,1,6.165-6.639h-.474a6.639,6.639,0,0,0,0,13.279,3.146,3.146,0,0,0,.474-.024A6.64,6.64,0,0,1,561.548,288.359Z" transform="translate(-325.853 -198.046)" opacity="0.05"/>
  <ellipse id="Ellipse_25" data-name="Ellipse 25" cx="5.217" cy="6.639" rx="5.217" ry="6.639" transform="translate(235.696 83.67)" fill="#ff6584"/>
  <path id="Tracé_155" data-name="Tracé 155" d="M612.765,288.359a6.639,6.639,0,0,0-6.165-6.639h.474a6.639,6.639,0,1,1,0,13.279,3.21,3.21,0,0,1-.474-.024A6.639,6.639,0,0,0,612.765,288.359Z" transform="translate(-350.038 -198.046)" opacity="0.05"/>
  <ellipse id="Ellipse_26" data-name="Ellipse 26" cx="5.217" cy="6.639" rx="5.217" ry="6.639" transform="translate(252.294 83.67)" fill="#ff6584"/>
  <path id="Tracé_156" data-name="Tracé 156" d="M571.827,197.731c-7.616,0-13.838-3.993-14.227-9.011v.474c0,5.217,6.374,9.485,14.227,9.485s14.227-4.268,14.227-9.485v-.474C585.67,193.737,579.448,197.731,571.827,197.731Z" transform="translate(-324.275 -149.15)" opacity="0.1"/>
  <path id="Tracé_157" data-name="Tracé 157" d="M349.649,121.466l-7.36,4.671,4.467-8.128a7.279,7.279,0,0,0-4.448-1.589h-.119a8.578,8.578,0,0,1-1.527-.109l-2.495,1.579,1.067-1.944a8.878,8.878,0,0,1-4.363-3.32l-4.463,2.845,2.836-5.136a13.069,13.069,0,0,0-10-5.055c-4.643,0-8.778,2.765-11.448,7.066a8.536,8.536,0,0,1-7.588,4.078h-.247c-5.126,0-9.281,5.814-9.281,12.98s4.154,12.98,9.281,12.98a6.976,6.976,0,0,0,3.23-.806,13.4,13.4,0,0,1,11.235-.223,11.719,11.719,0,0,0,9.551,0,13.407,13.407,0,0,1,11.13.213,6.981,6.981,0,0,0,3.2.792c5.126,0,9.281-5.809,9.281-12.98A16.489,16.489,0,0,0,349.649,121.466Z" transform="translate(-186.042 -105.28)" fill="#f2f2f2"/>
  <path id="Tracé_158" data-name="Tracé 158" d="M335.777,159.218a13.705,13.705,0,0,0-7.953.868,11.709,11.709,0,0,1-9.546,0,13.4,13.4,0,0,0-11.235.218,6.924,6.924,0,0,1-3.23.811c-4.557,0-8.342-4.586-9.134-10.637a8.74,8.74,0,0,0,2.276-2.457c2.67-4.3,6.805-7.061,11.448-7.061s8.731,2.727,11.382,6.986a8.783,8.783,0,0,0,7.564,4.154h.119C331.111,152.076,334.25,154.983,335.777,159.218Z" transform="translate(-186.042 -124.039)" opacity="0.03"/>
  <path id="Tracé_159" data-name="Tracé 159" d="M910.17,302.062l-3.671,2.328,2.229-4.05a3.624,3.624,0,0,0-2.224-.792h-.057a4.564,4.564,0,0,1-.764-.057l-1.242.787.531-.948a4.458,4.458,0,0,1-2.177-1.655l-2.224,1.423,1.423-2.556A6.521,6.521,0,0,0,896.987,294a6.792,6.792,0,0,0-5.691,3.524,4.268,4.268,0,0,1-3.794,2.034h-.123c-2.556,0-4.629,2.9-4.629,6.473s2.072,6.464,4.629,6.464a3.471,3.471,0,0,0,1.612-.4,6.687,6.687,0,0,1,5.606-.109,5.838,5.838,0,0,0,4.742,0,6.677,6.677,0,0,1,5.553.109,3.458,3.458,0,0,0,1.594.394c2.556,0,4.629-2.9,4.629-6.473A8.261,8.261,0,0,0,910.17,302.062Z" transform="translate(-495.227 -204.502)" fill="#f2f2f2"/>
  <path id="Tracé_160" data-name="Tracé 160" d="M903.292,320.89a6.848,6.848,0,0,0-3.969.432,5.823,5.823,0,0,1-2.371.5,5.886,5.886,0,0,1-2.371-.512,6.639,6.639,0,0,0-5.6.109,3.485,3.485,0,0,1-1.612.4c-2.271,0-4.164-2.291-4.557-5.307a4.388,4.388,0,0,0,1.138-1.224,6.373,6.373,0,0,1,11.382-.038,4.382,4.382,0,0,0,3.794,2.072h.062C900.954,317.328,902.519,318.775,903.292,320.89Z" transform="translate(-495.259 -213.845)" opacity="0.03"/>
  <path id="Tracé_161" data-name="Tracé 161" d="M779.995,182.578l5.9,3.742-3.58-6.511a5.828,5.828,0,0,1,3.566-1.276h.095a7.018,7.018,0,0,0,1.224-.095l2,1.271-.854-1.56a7.114,7.114,0,0,0,3.5-2.684l3.576,2.267-2.257-4.107a10.46,10.46,0,0,1,8.015-4.055c3.718,0,7.033,2.215,9.172,5.662A6.857,6.857,0,0,0,816.4,178.5h.2c4.107,0,7.431,4.657,7.431,10.4s-3.32,10.4-7.431,10.4a5.6,5.6,0,0,1-2.594-.645,10.723,10.723,0,0,0-9.011-.18,9.385,9.385,0,0,1-7.654,0,10.727,10.727,0,0,0-8.92.175,5.587,5.587,0,0,1-2.561.631c-4.107,0-7.436-4.657-7.436-10.4a13.2,13.2,0,0,1,1.565-6.3Z" transform="translate(-440.38 -139.081)" fill="#f2f2f2"/>
  <path id="Tracé_162" data-name="Tracé 162" d="M805.17,212.764a10.96,10.96,0,0,1,6.369.692,9.385,9.385,0,0,0,7.654,0,10.741,10.741,0,0,1,9.01.175,5.577,5.577,0,0,0,2.594.65c3.647,0,6.682-3.675,7.313-8.536a7.087,7.087,0,0,1-1.821-1.968c-2.139-3.448-5.454-5.658-9.176-5.658s-6.99,2.186-9.129,5.6a7.042,7.042,0,0,1-6.061,3.32h-.095C808.907,207.074,806.393,209.388,805.17,212.764Z" transform="translate(-454.439 -154.092)" opacity="0.03"/>
  <path id="Tracé_163" data-name="Tracé 163" d="M287.808,670.747c-1.959-3.623.261-8.062,2.812-11.292s5.667-6.6,5.6-10.713c-.095-5.919-6.379-9.414-11.382-12.548a55.486,55.486,0,0,1-10.225-8.209,14.932,14.932,0,0,1-3.144-4.206c-1.039-2.314-1.01-4.946-.948-7.483q.327-12.662,1.252-25.305" transform="translate(-173.328 -360.648)" fill="none" stroke="#3f3d56" stroke-miterlimit="10" stroke-width="4"/>
  <path id="Tracé_164" data-name="Tracé 164" d="M253.069,580.235a9.205,9.205,0,0,1,4.61-7.588l2.063,4.083-.071-4.927a9.109,9.109,0,0,1,3.04-.365,9.229,9.229,0,1,1-9.641,8.8Z" transform="translate(-164.159 -350.363)" fill="#3499ff"/>
  <path id="Tracé_165" data-name="Tracé 165" d="M286.654,706.778a9.229,9.229,0,1,0-.446-7.431l5.762,4.69-6.341-1.47A9.091,9.091,0,0,0,286.654,706.778Z" transform="translate(-181.284 -414.454)" fill="#3499ff"/>
  <path id="Tracé_166" data-name="Tracé 166" d="M287.639,663.441a9.229,9.229,0,0,0,2.926-18.106l.047,3.794-2.091-4.14H288.5a9.232,9.232,0,1,0-.859,18.445Z" transform="translate(-177.711 -389.033)" fill="#3499ff"/>
  <path id="Tracé_167" data-name="Tracé 167" d="M240.4,632.018a9.229,9.229,0,1,0-4.083-17.272l1.631,4.472-3.353-3.225a9.191,9.191,0,0,0-2.983,6.374,9.012,9.012,0,0,0,.232,2.542A9.224,9.224,0,0,0,240.4,632.018Z" transform="translate(-152.88 -372.52)" fill="#3499ff"/>
  <path id="Tracé_168" data-name="Tracé 168" d="M254.543,588.283c2.129.237,4.2.9,6.341,1.029s4.482-.379,5.833-2.039a29.2,29.2,0,0,0,1.712-3,6.555,6.555,0,0,1,2.324-2.191,9.229,9.229,0,1,1-17.253,6.127A9.385,9.385,0,0,1,254.543,588.283Z" transform="translate(-164.391 -355.964)" opacity="0.1"/>
  <path id="Tracé_169" data-name="Tracé 169" d="M240.654,637.875a9.233,9.233,0,0,0,8.778-13.165,6.8,6.8,0,0,0-1.859,1.859,29.46,29.46,0,0,1-1.826,3.049c-1.423,1.688-3.893,2.243-6.122,2.139s-4.377-.73-6.6-.948c-.3-.029-.617-.047-.948-.057A9.224,9.224,0,0,0,240.654,637.875Z" transform="translate(-153.129 -378.377)" opacity="0.1"/>
  <path id="Tracé_170" data-name="Tracé 170" d="M288.094,669.5a9.229,9.229,0,0,0,8.854-12.994,7.43,7.43,0,0,0-1.954,1.9,31,31,0,0,1-2,3.111c-1.56,1.736-4.173,2.371-6.535,2.291-2.286-.047-4.486-.612-6.758-.783A9.238,9.238,0,0,0,288.094,669.5Z" transform="translate(-178.166 -395.096)" opacity="0.1"/>
  <path id="Tracé_171" data-name="Tracé 171" d="M287.79,713.341a9.229,9.229,0,0,0,16.821-7.531,9.281,9.281,0,0,0-2.025,1.807,36.132,36.132,0,0,1-2.471,3.277c-1.9,1.854-4.932,2.618-7.645,2.689A40.294,40.294,0,0,1,287.79,713.341Z" transform="translate(-182.419 -421.017)" opacity="0.1"/>
  <path id="Tracé_172" data-name="Tracé 172" d="M869.309,686.3c-1.423-2.675.194-5.956,2.082-8.342s4.183-4.87,4.131-7.91c-.066-4.372-4.709-6.952-8.413-9.271a40.932,40.932,0,0,1-7.559-6.08,11.171,11.171,0,0,1-2.324-3.111,12.677,12.677,0,0,1-.7-5.525q.242-9.352.948-18.694" transform="translate(-481.431 -379.776)" fill="none" stroke="#3f3d56" stroke-miterlimit="10" stroke-width="4"/>
  <path id="Tracé_173" data-name="Tracé 173" d="M843.64,619.455a6.829,6.829,0,0,1,3.4-5.587l1.527,3.021-.047-3.656a6.917,6.917,0,0,1,2.248-.27,6.82,6.82,0,1,1-7.113,6.492Z" transform="translate(-474.665 -372.197)" fill="#3499ff"/>
  <path id="Tracé_174" data-name="Tracé 174" d="M868.455,712.985a6.815,6.815,0,1,0-.332-5.487l4.268,3.467-4.681-1.086A6.737,6.737,0,0,0,868.455,712.985Z" transform="translate(-487.32 -419.565)" fill="#3499ff"/>
  <path id="Tracé_175" data-name="Tracé 175" d="M869.169,680.876a6.819,6.819,0,0,0,7.114-6.492,6.728,6.728,0,0,0-.588-3.1,6.834,6.834,0,0,0-4.377-3.794l.033,2.812-1.541-3.059h0a6.825,6.825,0,0,0-.64,13.634Z" transform="translate(-484.667 -400.735)" fill="#3499ff"/>
  <path id="Tracé_176" data-name="Tracé 176" d="M834.277,657.708a6.82,6.82,0,1,0-3.011-12.757l1.2,3.32-2.48-2.371a6.771,6.771,0,0,0-2.2,4.7,6.64,6.64,0,0,0,.171,1.9,6.815,6.815,0,0,0,6.317,5.207Z" transform="translate(-466.326 -388.559)" fill="#3499ff"/>
  <path id="Tracé_177" data-name="Tracé 177" d="M844.749,625.411c1.57.175,3.1.664,4.681.764a5.087,5.087,0,0,0,4.311-1.508A20.451,20.451,0,0,0,855,622.447a4.876,4.876,0,0,1,1.717-1.617A6.808,6.808,0,1,1,844,625.354C844.232,625.364,844.474,625.383,844.749,625.411Z" transform="translate(-474.854 -376.337)" opacity="0.1"/>
  <path id="Tracé_178" data-name="Tracé 178" d="M834.477,662.042a6.824,6.824,0,0,0,6.488-9.722,5.113,5.113,0,0,0-1.375,1.371,20.312,20.312,0,0,1-1.347,2.253,5.582,5.582,0,0,1-4.524,1.584c-1.646-.076-3.23-.545-4.87-.692-.228-.024-.474-.038-.688-.043A6.815,6.815,0,0,0,834.477,662.042Z" transform="translate(-466.526 -392.893)" opacity="0.1"/>
  <path id="Tracé_179" data-name="Tracé 179" d="M869.514,685.364a6.82,6.82,0,0,0,7.114-6.492,6.728,6.728,0,0,0-.588-3.1,5.491,5.491,0,0,0-1.423,1.385,23.355,23.355,0,0,1-1.48,2.3,6.308,6.308,0,0,1-4.828,1.693c-1.745-.043-3.32-.45-4.989-.578A6.81,6.81,0,0,0,869.514,685.364Z" transform="translate(-485.012 -405.223)" opacity="0.1"/>
  <path id="Tracé_180" data-name="Tracé 180" d="M869.28,717.838a6.819,6.819,0,0,0,12.43-5.558,6.761,6.761,0,0,0-1.5,1.333,27.726,27.726,0,0,1-1.826,2.423,8.546,8.546,0,0,1-5.643,1.982A28.889,28.889,0,0,1,869.28,717.838Z" transform="translate(-488.145 -424.418)" opacity="0.1"/>
  <path id="Tracé_181" data-name="Tracé 181" d="M995.841,677.752c1.959-3.623-.261-8.062-2.812-11.292s-5.691-6.6-5.6-10.713c.095-5.918,6.379-9.414,11.382-12.548a55.479,55.479,0,0,0,10.229-8.209,14.935,14.935,0,0,0,3.144-4.207c1.039-2.314,1.01-4.946.948-7.483q-.3-12.681-1.247-25.3" transform="translate(-550.262 -364.334)" fill="none" stroke="#3f3d56" stroke-miterlimit="10" stroke-width="4"/>
  <path id="Tracé_182" data-name="Tracé 182" d="M1038.677,587.219a9.219,9.219,0,0,0-4.609-7.588L1032,583.719l.066-4.946a9.119,9.119,0,0,0-3.04-.365,9.229,9.229,0,1,0,9.651,8.811Z" transform="translate(-567.509 -354.027)" fill="#3499ff"/>
  <path id="Tracé_183" data-name="Tracé 183" d="M1005.09,713.778a9.229,9.229,0,1,1,.446-7.431l-5.762,4.69,6.341-1.47A9.093,9.093,0,0,1,1005.09,713.778Z" transform="translate(-550.382 -418.134)" fill="#3499ff"/>
  <path id="Tracé_184" data-name="Tracé 184" d="M1004.086,670.441a9.229,9.229,0,0,1-2.926-18.106l-.047,3.794,2.115-4.14h0a9.232,9.232,0,1,1,.858,18.445Z" transform="translate(-553.936 -392.714)" fill="#3499ff"/>
  <path id="Tracé_185" data-name="Tracé 185" d="M1051.348,639.018a9.229,9.229,0,1,1,4.083-17.272l-1.631,4.472,3.353-3.225a9.229,9.229,0,0,1-5.8,16.024Z" transform="translate(-578.794 -376.201)" fill="#3499ff"/>
  <path id="Tracé_186" data-name="Tracé 186" d="M1037.438,595.283c-2.129.237-4.2.9-6.341,1.029s-4.482-.379-5.833-2.039a29.205,29.205,0,0,1-1.712-3,6.554,6.554,0,0,0-2.324-2.191,9.229,9.229,0,1,0,17.253,6.127A9.819,9.819,0,0,0,1037.438,595.283Z" transform="translate(-567.512 -359.644)" opacity="0.1"/>
  <path id="Tracé_187" data-name="Tracé 187" d="M1051.339,644.875a9.233,9.233,0,0,1-8.778-13.165,6.8,6.8,0,0,1,1.859,1.859,29.426,29.426,0,0,0,1.826,3.049c1.423,1.688,3.893,2.243,6.122,2.139s4.377-.73,6.6-.949c.3-.028.616-.047.948-.057a9.224,9.224,0,0,1-8.574,7.123Z" transform="translate(-578.785 -382.058)" opacity="0.1"/>
  <path id="Tracé_188" data-name="Tracé 188" d="M1004.1,676.5a9.229,9.229,0,0,1-8.854-12.994,7.43,7.43,0,0,1,1.954,1.9,31.033,31.033,0,0,0,2,3.111c1.56,1.736,4.173,2.371,6.535,2.291,2.286-.047,4.486-.612,6.758-.782A9.238,9.238,0,0,1,1004.1,676.5Z" transform="translate(-553.948 -398.777)" opacity="0.1"/>
  <path id="Tracé_189" data-name="Tracé 189" d="M1005.18,720.341a9.229,9.229,0,0,1-16.8-7.531,9.278,9.278,0,0,1,2.025,1.807,36.159,36.159,0,0,0,2.471,3.277c1.9,1.854,4.932,2.618,7.645,2.689A40.284,40.284,0,0,0,1005.18,720.341Z" transform="translate(-550.472 -424.697)" opacity="0.1"/>
  <path id="Tracé_190" data-name="Tracé 190" d="M276.83,749.01s7.28-.228,9.485-1.788,11.206-3.429,11.752-.949,10.945,12.468,2.722,12.534-19.107-1.281-21.3-2.613S276.83,749.01,276.83,749.01Z" transform="translate(-176.657 -441.657)" fill="#656380"/>
  <path id="Tracé_191" data-name="Tracé 191" d="M300.926,762.318c-8.223.066-19.107-1.281-21.3-2.613-1.669-1.015-2.333-4.662-2.556-6.345h-.242s.474,5.871,2.651,7.208,13.075,2.679,21.3,2.613c2.371,0,3.192-.863,3.149-2.11C303.6,761.835,302.695,762.3,300.926,762.318Z" transform="translate(-176.657 -446.017)" opacity="0.2"/>
  <path id="Tracé_192" data-name="Tracé 192" d="M865,748.933s4.268-.128,5.534-1.043,6.54-2,6.858-.536,6.388,7.275,1.589,7.313-11.154-.745-12.434-1.527S865,748.933,865,748.933Z" transform="translate(-485.895 -442.482)" fill="#656380"/>
  <path id="Tracé_193" data-name="Tracé 193" d="M879.047,756.7c-4.8.038-11.154-.749-12.434-1.527-.949-.593-1.361-2.722-1.489-3.7H865s.27,3.429,1.546,4.206,7.635,1.57,12.434,1.527c1.385,0,1.864-.5,1.835-1.233C880.607,756.416,880.076,756.691,879.047,756.7Z" transform="translate(-485.895 -445.023)" opacity="0.2"/>
  <path id="Tracé_194" data-name="Tracé 194" d="M975.83,753.01s7.28-.228,9.485-1.788,11.206-3.429,11.752-.948,10.945,12.468,2.722,12.534-19.107-1.28-21.3-2.613S975.83,753.01,975.83,753.01Z" transform="translate(-544.165 -443.76)" fill="#656380"/>
  <path id="Tracé_195" data-name="Tracé 195" d="M999.926,766.318c-8.223.066-19.107-1.28-21.3-2.613-1.669-1.015-2.333-4.662-2.556-6.345h-.242s.474,5.871,2.651,7.208,13.075,2.679,21.3,2.613c2.371,0,3.192-.863,3.149-2.11C1002.6,765.835,1001.695,766.3,999.926,766.318Z" transform="translate(-544.165 -448.12)" opacity="0.2"/>
</svg>
