<svg xmlns="http://www.w3.org/2000/svg" width="787.933" height="430.617" viewBox="0 0 787.933 430.617">
  <g id="undraw_checking_boxes_2ibd" transform="translate(0 0.028)">
    <path id="Tracé_1" data-name="Tracé 1" d="M393.062,214.016,358.92,256.3l27.213-47.149a68.211,68.211,0,0,0-13.175-6.266,67.848,67.848,0,1,0-135.3-3.7l61.669,4.057-60.584,5.443a67.949,67.949,0,0,0,30.044,44.618l33.76-21.9L274.47,256.572a68,68,0,0,0,8.622,3.709,67.835,67.835,0,0,0,45.147,70.68A67.841,67.841,0,0,0,420.529,400.8a23.271,23.271,0,0,0,3.14,7.478,22.279,22.279,0,0,0,8.589,7.96,23.176,23.176,0,0,0,12.19,19.106,23.216,23.216,0,0,0,12.191,19.1,23.2,23.2,0,0,0,12.184,19.113,22.36,22.36,0,0,0,3.6,11.14c5.509,8.629,15.324,12.217,21.918,8.033s7.471-14.614,1.961-23.25a22.386,22.386,0,0,0-8.576-7.973,23.216,23.216,0,0,0-12.211-19.126,23.2,23.2,0,0,0-12.2-19.1,23.176,23.176,0,0,0-12.191-19.1,22.353,22.353,0,0,0-3.608-11.14,23.163,23.163,0,0,0-5.356-5.931,67.835,67.835,0,0,0-24.04-113.5,67.888,67.888,0,0,0-25.057-59.58Z" transform="translate(-86.237 -128.39)" fill="#f2f2f2"/>
    <path id="Tracé_2" data-name="Tracé 2" d="M656.6,198.982l-6.092,3.863,3.7-6.728a6.025,6.025,0,0,0-3.689-1.339h-.094a7.222,7.222,0,0,1-1.265-.094l-2.069,1.339.89-1.613a7.364,7.364,0,0,1-3.615-2.738l-3.7,2.343,2.336-4.244a10.825,10.825,0,0,0-8.281-4.191c-3.849,0-7.27,2.29-9.479,5.851a7.076,7.076,0,0,1-6.266,3.347h-.207c-4.244,0-7.685,4.813-7.685,10.711s3.441,10.745,7.685,10.745a5.771,5.771,0,0,0,2.678-.669,11.086,11.086,0,0,1,9.3-.181,9.72,9.72,0,0,0,7.906,0,11.1,11.1,0,0,1,9.218.181,5.763,5.763,0,0,0,2.678.669c4.244,0,7.685-4.807,7.685-10.745a13.576,13.576,0,0,0-1.64-6.507Z" transform="translate(-209.699 -147.304)" fill="#f2f2f2"/>
    <path id="Tracé_3" data-name="Tracé 3" d="M645.114,221.639a11.38,11.38,0,0,0-6.581.716,9.72,9.72,0,0,1-7.906,0,11.1,11.1,0,0,0-9.305.181,5.723,5.723,0,0,1-2.678.669c-3.776,0-6.909-3.8-7.565-8.8a7.316,7.316,0,0,0,1.888-2.008c2.209-3.561,5.637-5.844,9.479-5.844s7.223,2.256,9.432,5.777a7.263,7.263,0,0,0,6.266,3.441h.1C641.252,215.721,643.829,218.131,645.114,221.639Z" transform="translate(-209.696 -154.236)" opacity="0.03"/>
    <path id="Tracé_4" data-name="Tracé 4" d="M993.6,159.982l-6.092,3.863,3.7-6.728a6.026,6.026,0,0,0-3.689-1.339h-.094a7.221,7.221,0,0,1-1.265-.094l-2.068,1.339.89-1.613a7.364,7.364,0,0,1-3.615-2.738l-3.7,2.343,2.336-4.244a10.825,10.825,0,0,0-8.281-4.191c-3.849,0-7.27,2.289-9.479,5.851a7.076,7.076,0,0,1-6.266,3.347h-.208c-4.244,0-7.685,4.813-7.685,10.711s3.441,10.745,7.685,10.745a5.771,5.771,0,0,0,2.678-.669,11.086,11.086,0,0,1,9.3-.181,9.72,9.72,0,0,0,7.906,0,11.1,11.1,0,0,1,9.218.181,5.763,5.763,0,0,0,2.678.669c4.244,0,7.685-4.807,7.685-10.745A13.574,13.574,0,0,0,993.6,159.982Z" transform="translate(-321.098 -134.412)" fill="#f2f2f2"/>
    <path id="Tracé_5" data-name="Tracé 5" d="M982.114,182.639a11.381,11.381,0,0,0-6.581.716,9.72,9.72,0,0,1-7.906,0,11.1,11.1,0,0,0-9.305.181,5.722,5.722,0,0,1-2.677.669c-3.776,0-6.909-3.8-7.565-8.8a7.314,7.314,0,0,0,1.888-2.008c2.209-3.561,5.637-5.844,9.479-5.844s7.223,2.256,9.432,5.777a7.263,7.263,0,0,0,6.266,3.441h.1C978.252,176.721,980.829,179.131,982.114,182.639Z" transform="translate(-321.094 -141.344)" opacity="0.03"/>
    <path id="Tracé_6" data-name="Tracé 6" d="M790.06,250.4l9.814,6.239-5.945-10.812a9.693,9.693,0,0,1,5.924-2.109h.154a11.438,11.438,0,0,0,2.008-.147l3.314,2.1-1.439-2.584a11.9,11.9,0,0,0,5.8-4.4l5.938,3.762-3.709-6.822c3.474-4.164,8.154-6.694,13.3-6.694,6.179,0,11.675,3.669,15.23,9.372a11.38,11.38,0,0,0,10.042,5.429h.335c6.815,0,12.338,7.725,12.338,17.258s-5.523,17.265-12.338,17.265a9.278,9.278,0,0,1-4.3-1.078,17.8,17.8,0,0,0-14.935-.288,15.584,15.584,0,0,1-12.719,0,17.834,17.834,0,0,0-14.808.288,9.306,9.306,0,0,1-4.251,1.051c-6.822,0-12.344-7.725-12.344-17.265A21.945,21.945,0,0,1,790.06,250.4Z" transform="translate(-268.003 -161.633)" fill="#f2f2f2"/>
    <path id="Tracé_7" data-name="Tracé 7" d="M818.89,286.787a18.315,18.315,0,0,1,10.577,1.151,15.585,15.585,0,0,0,12.719,0,17.814,17.814,0,0,1,14.942.288,9.251,9.251,0,0,0,4.3,1.078c6.059,0,11.093-6.1,12.144-14.145a11.675,11.675,0,0,1-3.026-3.267c-3.555-5.717-9.051-9.372-15.23-9.372s-11.6,3.628-15.156,9.292a11.675,11.675,0,0,1-10.041,5.523h-.154C825.1,277.288,820.925,281.157,818.89,286.787Z" transform="translate(-278.389 -172.737)" opacity="0.03"/>
    <ellipse id="Ellipse_1" data-name="Ellipse 1" cx="393.966" cy="14.058" rx="393.966" ry="14.058" transform="translate(0 402.473)" fill="#3f3d56"/>
    <rect id="Rectangle_1" data-name="Rectangle 1" width="558.314" height="305.265" rx="20.42" transform="translate(114.809 104.404)" fill="#f2f2f2"/>
    <path id="Tracé_8" data-name="Tracé 8" d="M741.314,298.03v7.752H183V298.03a13.67,13.67,0,0,1,13.67-13.67H727.644A13.67,13.67,0,0,1,741.314,298.03Z" transform="translate(-68.191 -179.956)" fill="#3f3d56"/>
    <circle id="Ellipse_2" data-name="Ellipse 2" cx="4.017" cy="4.017" r="4.017" transform="translate(125.186 111.433)" fill="#46cefc"/>
    <circle id="Ellipse_3" data-name="Ellipse 3" cx="4.017" cy="4.017" r="4.017" transform="translate(135.227 111.433)" fill="#46cefc"/>
    <circle id="Ellipse_4" data-name="Ellipse 4" cx="4.017" cy="4.017" r="4.017" transform="translate(145.269 111.433)" fill="#46cefc"/>
    <path id="Tracé_9" data-name="Tracé 9" d="M347.5,503.86" transform="translate(-122.568 -252.514)" fill="none" stroke="#f2f2f2" stroke-miterlimit="10" stroke-width="2"/>
    <path id="Tracé_10" data-name="Tracé 10" d="M333.5,502.86" transform="translate(-117.94 -252.183)" fill="none" stroke="#f2f2f2" stroke-miterlimit="10" stroke-width="2"/>
    <rect id="Rectangle_2" data-name="Rectangle 2" width="64.266" height="52.216" rx="9.29" transform="translate(199.828 161.306)" fill="#fff"/>
    <rect id="Rectangle_3" data-name="Rectangle 3" width="64.266" height="52.216" rx="9.29" transform="translate(274.806 161.306)" fill="#46cefc"/>
    <rect id="Rectangle_4" data-name="Rectangle 4" width="64.266" height="52.216" rx="9.29" transform="translate(349.783 161.306)" fill="#fff"/>
    <rect id="Rectangle_5" data-name="Rectangle 5" width="64.266" height="52.216" rx="9.29" transform="translate(424.761 161.306)" fill="#fff"/>
    <rect id="Rectangle_6" data-name="Rectangle 6" width="64.266" height="52.216" rx="9.29" transform="translate(499.738 161.306)" fill="#46cefc"/>
    <rect id="Rectangle_7" data-name="Rectangle 7" width="64.266" height="52.216" rx="9.29" transform="translate(199.828 249.003)" fill="#fff"/>
    <rect id="Rectangle_8" data-name="Rectangle 8" width="64.266" height="52.216" rx="9.29" transform="translate(274.806 249.003)" fill="#fff"/>
    <rect id="Rectangle_9" data-name="Rectangle 9" width="64.266" height="52.216" rx="9.29" transform="translate(349.783 249.003)" fill="#46cefc"/>
    <rect id="Rectangle_10" data-name="Rectangle 10" width="64.266" height="52.216" rx="9.29" transform="translate(424.761 249.003)" fill="#fff"/>
    <rect id="Rectangle_11" data-name="Rectangle 11" width="64.266" height="52.216" rx="9.29" transform="translate(499.738 249.003)" fill="#fff"/>
    <rect id="Rectangle_12" data-name="Rectangle 12" width="64.266" height="52.216" rx="9.29" transform="translate(199.828 336.7)" fill="#fff"/>
    <rect id="Rectangle_13" data-name="Rectangle 13" width="64.266" height="52.216" rx="9.29" transform="translate(274.806 336.7)" fill="#fff"/>
    <rect id="Rectangle_14" data-name="Rectangle 14" width="64.266" height="52.216" rx="9.29" transform="translate(349.783 336.7)" fill="#fff"/>
    <path id="Tracé_249" data-name="Tracé 249" d="M9.29,0H54.976a9.29,9.29,0,0,1,9.29,9.29V42.926a9.29,9.29,0,0,1-9.29,9.29H9.29A9.29,9.29,0,0,1,0,42.926V9.29A9.29,9.29,0,0,1,9.29,0Z" transform="translate(424.761 336.7)" fill="#46cefc" opacity="0.3"/>
    <rect id="Rectangle_16" data-name="Rectangle 16" width="64.266" height="52.216" rx="9.29" transform="translate(499.738 336.7)" fill="#fff"/>
    <path id="Tracé_11" data-name="Tracé 11" d="M519.152,353.055l-3.387-3.407a1.794,1.794,0,0,0-2.551,0l-21.262,21.081-8.991-9.064a1.781,1.781,0,0,0-2.53,0l-3.421,3.381a1.821,1.821,0,0,0,0,2.557l13.65,13.757a1.821,1.821,0,0,0,2.557,0l25.934-25.747a1.794,1.794,0,0,0,0-2.557Z" transform="translate(-165.205 -201.362)" fill="#00bfff"/>
    <path id="Tracé_12" data-name="Tracé 12" d="M859.152,353.055l-3.387-3.408a1.794,1.794,0,0,0-2.551,0l-21.262,21.081-8.99-9.064a1.781,1.781,0,0,0-2.531,0l-3.421,3.381a1.821,1.821,0,0,0,0,2.557l13.65,13.757a1.821,1.821,0,0,0,2.557,0l25.934-25.747a1.794,1.794,0,0,0,0-2.557Z" transform="translate(-277.595 -201.362)" fill="#00bfff"/>
    <path id="Tracé_13" data-name="Tracé 13" d="M631.152,483.055l-3.387-3.407a1.794,1.794,0,0,0-2.551,0l-21.261,21.081-8.991-9.064a1.781,1.781,0,0,0-2.531,0l-3.421,3.381a1.821,1.821,0,0,0,0,2.557l13.65,13.757a1.821,1.821,0,0,0,2.557,0l25.934-25.747a1.794,1.794,0,0,0,0-2.557Z" transform="translate(-202.228 -244.334)" fill="#00bfff"/>
    <path id="Tracé_14" data-name="Tracé 14" d="M742.152,619.055l-3.387-3.407a1.794,1.794,0,0,0-2.551,0l-21.261,21.081-8.99-9.064a1.781,1.781,0,0,0-2.531,0l-3.421,3.347a1.821,1.821,0,0,0,0,2.557l13.65,13.757a1.821,1.821,0,0,0,2.557,0l25.934-25.747A1.794,1.794,0,0,0,742.152,619.055Z" transform="translate(-238.92 -289.29)" fill="#00bfff"/>
    <path id="Tracé_15" data-name="Tracé 15" d="M1015.19,706.673c-2.008-3.689.268-8.214,2.872-11.5s5.764-6.694,5.7-10.905c-.1-6.025-6.494-9.586-11.6-12.78a56.23,56.23,0,0,1-10.416-8.375,15.259,15.259,0,0,1-3.2-4.284c-1.058-2.357-1.031-5.034-.964-7.612q.341-12.894,1.279-25.767" transform="translate(-337.447 -292.706)" fill="none" stroke="#3f3d56" stroke-miterlimit="10" stroke-width="4"/>
    <path id="Tracé_16" data-name="Tracé 16" d="M985,620.326a9.372,9.372,0,0,1,4.686-7.7l2.1,4.164-.067-5.041a9.519,9.519,0,0,1,3.1-.375A9.372,9.372,0,1,1,985,620.326Z" transform="translate(-333.294 -288.051)" fill="#00bfff"/>
    <path id="Tracé_17" data-name="Tracé 17" d="M1009.484,712.99a9.372,9.372,0,1,0-.455-7.565l5.871,4.773-6.46-1.493a9.367,9.367,0,0,0,1.044,4.284Z" transform="translate(-341.047 -317.125)" fill="#00bfff"/>
    <path id="Tracé_18" data-name="Tracé 18" d="M1012.575,683.229a9.372,9.372,0,0,0,2.946-18.4l.054,3.869-2.129-4.211h0a9.372,9.372,0,0,0-9.821,8.944,9.267,9.267,0,0,0,.4,3.207,9.372,9.372,0,0,0,8.549,6.594Z" transform="translate(-339.451 -305.606)" fill="#00bfff"/>
    <path id="Tracé_19" data-name="Tracé 19" d="M978.458,660.568a9.372,9.372,0,1,0-4.157-17.586l1.66,4.552-3.414-3.28a9.372,9.372,0,0,0-3.033,6.487,9.233,9.233,0,0,0,.234,2.591,9.372,9.372,0,0,0,8.71,7.237Z" transform="translate(-328.175 -298.121)" fill="#00bfff"/>
    <path id="Tracé_20" data-name="Tracé 20" d="M986.355,625.37c2.169.234,4.278.91,6.453,1.044s4.565-.382,5.945-2.075a29.058,29.058,0,0,0,1.734-3.059,6.694,6.694,0,0,1,2.37-2.229,9.372,9.372,0,1,1-17.566,6.239Q985.826,625.309,986.355,625.37Z" transform="translate(-333.394 -290.591)" opacity="0.1"/>
    <path id="Tracé_21" data-name="Tracé 21" d="M978.589,663.209a9.372,9.372,0,0,0,8.937-13.389,6.941,6.941,0,0,0-1.888,1.888,30.733,30.733,0,0,1-1.861,3.106c-1.466,1.72-3.963,2.283-6.232,2.182s-4.459-.75-6.694-.957c-.315,0-.629-.047-.951-.053A9.372,9.372,0,0,0,978.589,663.209Z" transform="translate(-328.307 -300.762)" opacity="0.1"/>
    <path id="Tracé_22" data-name="Tracé 22" d="M1012.785,685.958a9.372,9.372,0,0,0,9.011-13.228,7.687,7.687,0,0,0-2.008,1.908c-.73,1.031-1.185,2.216-2.008,3.167-1.586,1.767-4.251,2.39-6.648,2.336s-4.572-.623-6.882-.8A9.372,9.372,0,0,0,1012.785,685.958Z" transform="translate(-339.662 -308.335)" opacity="0.1"/>
    <path id="Tracé_23" data-name="Tracé 23" d="M1010,715.955a9.384,9.384,0,0,0,17.131-7.665,9.094,9.094,0,0,0-2.062,1.841,40.856,40.856,0,0,1-2.517,3.347c-1.921,1.888-5.021,2.678-7.786,2.738a40.155,40.155,0,0,1-4.766-.261Z" transform="translate(-341.562 -320.09)" opacity="0.1"/>
    <path id="Tracé_24" data-name="Tracé 24" d="M1031.443,738.452s-7.417-.228-9.653-1.821-11.381-3.488-11.956-.937-11.146,12.719-2.778,12.76,19.454-1.339,21.69-2.678S1031.443,738.452,1031.443,738.452Z" transform="translate(-339.528 -328.736)" fill="#656380"/>
    <path id="Tracé_25" data-name="Tracé 25" d="M1006.921,749.538c8.375.067,19.454-1.305,21.683-2.678,1.7-1.038,2.376-4.746,2.6-6.46h.248s-.468,5.985-2.678,7.364-13.315,2.731-21.69,2.678c-2.417,0-3.247-.877-3.2-2.149C1004.2,749.042,1005.121,749.5,1006.921,749.538Z" transform="translate(-339.542 -330.704)" opacity="0.2"/>
    <path id="Tracé_26" data-name="Tracé 26" d="M182.963,682.73c-2.939-5.436.395-12.1,4.224-16.957s8.5-9.894,8.408-16.067c-.147-8.883-9.573-14.125-17.111-18.838a83.414,83.414,0,0,1-15.357-12.345,22.621,22.621,0,0,1-4.686-6.32c-1.56-3.474-1.513-7.424-1.412-11.233q.482-19.012,1.874-37.991" transform="translate(-59.592 -272.056)" fill="none" stroke="#3f3d56" stroke-miterlimit="10" stroke-width="4"/>
    <path id="Tracé_27" data-name="Tracé 27" d="M138.4,555.393a13.844,13.844,0,0,1,6.915-11.381l3.106,6.139-.094-7.431a13.857,13.857,0,1,1-9.928,12.646Z" transform="translate(-53.444 -265.173)" fill="#00bfff"/>
    <path id="Tracé_28" data-name="Tracé 28" d="M174.553,692.032a13.851,13.851,0,1,0-.669-11.153l8.649,7.036-9.533-2.2A13.8,13.8,0,0,0,174.553,692.032Z" transform="translate(-64.885 -308.042)" fill="#00bfff"/>
    <path id="Tracé_29" data-name="Tracé 29" d="M179.016,648.144a13.857,13.857,0,0,0,4.392-27.179l.074,5.7-3.14-6.206h-.033a13.857,13.857,0,1,0-1.292,27.683Z" transform="translate(-62.507 -291.053)" fill="#00bfff"/>
    <path id="Tracé_30" data-name="Tracé 30" d="M128.766,614.711a13.864,13.864,0,0,0,14.487-13.195,13.684,13.684,0,0,0-1.339-6.567,13.837,13.837,0,0,0-19.3-6.166l2.443,6.694-5.034-4.833a13.857,13.857,0,0,0,8.7,24.053Z" transform="translate(-45.889 -279.999)" fill="#00bfff"/>
    <path id="Tracé_31" data-name="Tracé 31" d="M140.423,562.842c3.193.355,6.306,1.339,9.513,1.546s6.735-.569,8.763-3.066c1.091-1.339,1.64-3.039,2.564-4.505a9.887,9.887,0,0,1,3.488-3.287,13.857,13.857,0,1,1-25.9,9.2C139.372,562.748,139.9,562.788,140.423,562.842Z" transform="translate(-53.597 -268.933)" opacity="0.1"/>
    <path id="Tracé_32" data-name="Tracé 32" d="M128.947,618.632a13.864,13.864,0,0,0,14.487-13.195,13.683,13.683,0,0,0-1.339-6.567,10.3,10.3,0,0,0-2.785,2.785c-.984,1.493-1.587,3.213-2.745,4.579-2.156,2.537-5.844,3.347-9.185,3.213s-6.574-1.1-9.9-1.406c-.462-.04-.931-.074-1.4-.087a13.851,13.851,0,0,0,12.867,10.678Z" transform="translate(-46.07 -283.92)" opacity="0.1"/>
    <path id="Tracé_33" data-name="Tracé 33" d="M179.319,652.188a13.851,13.851,0,0,0,13.288-19.508,11.172,11.172,0,0,0-2.925,2.818c-1.078,1.52-1.747,3.267-3.012,4.686-2.336,2.6-6.266,3.521-9.807,3.441-3.428-.08-6.735-.917-10.142-1.178a13.864,13.864,0,0,0,12.6,9.74Z" transform="translate(-62.809 -295.096)" opacity="0.1"/>
    <path id="Tracé_34" data-name="Tracé 34" d="M175.32,696.417a13.857,13.857,0,0,0,25.258-11.307,13.994,13.994,0,0,0-3.046,2.678c-1.339,1.607-2.182,3.427-3.709,4.927-2.832,2.778-7.4,3.923-11.474,4.017A59.679,59.679,0,0,1,175.32,696.417Z" transform="translate(-65.652 -312.428)" opacity="0.1"/>
    <path id="Tracé_35" data-name="Tracé 35" d="M206.909,729.6s-10.932-.335-14.232-2.678-16.816-5.148-17.633-1.386-16.435,18.744-4.09,18.818,28.686-1.921,31.973-3.93S206.909,729.6,206.909,729.6Z" transform="translate(-62.645 -325.182)" fill="#656380"/>
    <path id="Tracé_36" data-name="Tracé 36" d="M170.774,745.939c12.344.1,28.686-1.921,31.973-3.923,2.5-1.526,3.508-7,3.836-9.526h.368s-.669,8.817-3.983,10.818-19.628,4.017-31.973,3.93c-3.561,0-4.793-1.3-4.726-3.173C166.757,745.209,168.1,745.919,170.774,745.939Z" transform="translate(-62.659 -328.089)" opacity="0.2"/>
    <path id="Tracé_37" data-name="Tracé 37" d="M863.171,691.009a3.23,3.23,0,0,0-.214.877c-1.064,7.009-7.19,12.184-9.426,18.912a18.142,18.142,0,0,0,.79,13.3,4.4,4.4,0,0,1,.609,1.921c0,.669-.536,1.4-1.212,1.339-1.62-.107-2.9-1.339-4.251-2.209a15.135,15.135,0,0,1-4.325-4.016,7.485,7.485,0,0,1-1.279-5.643c.8-3.655,3.595-6.915,4.465-10.557l2.283-9.446a14.776,14.776,0,0,1,1.875-5.041,3.112,3.112,0,0,1,1.58-1.339,3.739,3.739,0,0,1,1.192-.094A28.464,28.464,0,0,1,863.171,691.009Z" transform="translate(-286.607 -313.714)" fill="#ffc1c7"/>
    <path id="Tracé_38" data-name="Tracé 38" d="M852.392,735.241a1.266,1.266,0,0,1,.723.054,1.794,1.794,0,0,1,.669.857,7.847,7.847,0,0,0,3.153,3.167,9.127,9.127,0,0,1,1.54.87,1.788,1.788,0,0,1,.743,1.526c-.107.877-1.064,1.339-1.908,1.6a14.314,14.314,0,0,1-5.583.489,4.894,4.894,0,0,1-2.008-.562,5.942,5.942,0,0,1-1.547-1.567,38.833,38.833,0,0,0-4.954-5.617,21.668,21.668,0,0,1-2.6-2.417,4.31,4.31,0,0,1-1.091-3.267c.261-1.741,1.908-2.878,2.945-4.3a29.418,29.418,0,0,1,4.365,6.835,19.624,19.624,0,0,0,1.245,2.939c.475.783,1.158,1.687,2.008,1.178S851.153,735.456,852.392,735.241Z" transform="translate(-285.207 -325.967)" fill="#ff6584"/>
    <path id="Tracé_39" data-name="Tracé 39" d="M877.564,615.27a8.809,8.809,0,0,1,.6,3.963l-.06,9.995a40.159,40.159,0,0,1-.308,5.818c-.529,3.474-1.955,6.761-2.577,10.222-.589,3.247-.475,6.621-1.433,9.781-1.486,4.894-5.423,8.77-6.808,13.7a1.553,1.553,0,0,1-.395.8,1.144,1.144,0,0,1-.562.241,5.977,5.977,0,0,1-3.22-.6l-7.2-2.825c-.5.214-.837-.355-.81-.9a2.618,2.618,0,0,1,.716-1.426,23.952,23.952,0,0,0,2.316-3.568,32.062,32.062,0,0,0,3.347-12.913,95.449,95.449,0,0,0-.4-13.389q-.368-4.833-.736-9.653c-.114-1.533-.2-3.193.669-4.472a6.6,6.6,0,0,1,3.776-2.249A61.367,61.367,0,0,1,877.564,615.27Z" transform="translate(-290.256 -289.341)" fill="#3c354c"/>
    <path id="Tracé_40" data-name="Tracé 40" d="M877.564,615.27a8.809,8.809,0,0,1,.6,3.963l-.06,9.995a40.159,40.159,0,0,1-.308,5.818c-.529,3.474-1.955,6.761-2.577,10.222-.589,3.247-.475,6.621-1.433,9.781-1.486,4.894-5.423,8.77-6.808,13.7a1.553,1.553,0,0,1-.395.8,1.144,1.144,0,0,1-.562.241,5.977,5.977,0,0,1-3.22-.6l-7.2-2.825c-.5.214-.837-.355-.81-.9a2.618,2.618,0,0,1,.716-1.426,23.952,23.952,0,0,0,2.316-3.568,32.062,32.062,0,0,0,3.347-12.913,95.449,95.449,0,0,0-.4-13.389q-.368-4.833-.736-9.653c-.114-1.533-.2-3.193.669-4.472a6.6,6.6,0,0,1,3.776-2.249A61.367,61.367,0,0,1,877.564,615.27Z" transform="translate(-290.256 -289.341)" opacity="0.1"/>
    <path id="Tracé_41" data-name="Tracé 41" d="M905.545,629.463a20.809,20.809,0,0,0-2.4,4.626,24.742,24.742,0,0,0-.81,3.762c-.937,5.911-1.881,11.876-1.52,17.847a3.762,3.762,0,0,1-3.347-.83,9.568,9.568,0,0,1-2.189-2.832,30.118,30.118,0,0,1-1.8-3.6,22.557,22.557,0,0,1-1.707-8.776,1.512,1.512,0,0,1,.12-.716,1.654,1.654,0,0,1,.355-.422c3.93-3.722,6.192-8.83,8.354-13.791a25.5,25.5,0,0,0,1.794-5.068c.355-1.767.382-3.722,1.5-5.135a6.457,6.457,0,0,1,4.244-2.008,7.989,7.989,0,0,1,3.428.141c1.218.375,4.1,1.8,4.271,3.24s-2.4,3.28-3.24,4.238a81.557,81.557,0,0,0-7.049,9.325Z" transform="translate(-302.478 -288.392)" fill="#ffc1c7"/>
    <path id="Tracé_42" data-name="Tracé 42" d="M900.774,668.2c.857,1.439,2.055,3.046,1.446,4.6s-2.838,1.9-4.177.944a6.445,6.445,0,0,1-1.044-1,103,103,0,0,1-10.042-13.215,12.98,12.98,0,0,1-2.383-5.63,1.179,1.179,0,0,1,.094-.669,1.292,1.292,0,0,1,.522-.442,26,26,0,0,1,5.8-2.41A12.3,12.3,0,0,0,892.7,656.9a31.169,31.169,0,0,1,2.209,4.472c.455,1.125.924,1.212,2.1,1.225.944,0,1.62-.114,2.075.844C899.8,664.937,899.857,666.657,900.774,668.2Z" transform="translate(-300.097 -300.944)" fill="#ff6584"/>
    <path id="Tracé_43" data-name="Tracé 43" d="M865.627,590c8.609.134,17.2.736,25.794,1.339l5.583.395a20.857,20.857,0,0,1,4.867.723,21.353,21.353,0,0,1,4.311,2.135,3.785,3.785,0,0,1,1.205.964,3.607,3.607,0,0,1,.509,1.339,7.622,7.622,0,0,1,.315,3.093,7.539,7.539,0,0,1-.823,2.122l-3.909,7.725c-1.252-.408-2.223-1.225-3.448-1.707a17.01,17.01,0,0,0-4.566-.87l-4.07-.4a1.158,1.158,0,0,1-.114-.8c-3.575,1.245-7.136,2.4-10.711,3.649-6.56,2.283-13.134,4.572-19.454,7.464a4.008,4.008,0,0,1-2.966.516,3.089,3.089,0,0,1-.93-.616,9.567,9.567,0,0,1-2.879-5.6,20.9,20.9,0,0,1,.094-6.393c.6-4.358,1.921-8.917,5.255-11.789C861.45,591.72,863.3,589.939,865.627,590Z" transform="translate(-290.041 -280.987)" fill="#3c354c"/>
    <path id="Tracé_44" data-name="Tracé 44" d="M918.216,601.24a41.173,41.173,0,0,0-5.53,3.24,4.489,4.489,0,0,0-.73.6,5.472,5.472,0,0,0-.449.589,11.058,11.058,0,0,0-1.888,3.762" transform="translate(-308.381 -284.704)" fill="none" stroke="#000" stroke-miterlimit="10" stroke-width="1" opacity="0.1"/>
    <path id="Tracé_45" data-name="Tracé 45" d="M776.944,584.009a15.663,15.663,0,0,0-2.765,3.8c-2.042,3.213-4.974,5.8-6.989,9.031a16.842,16.842,0,0,1-2.812,4.017,9.026,9.026,0,0,1-5.476,1.955c-1.774.127-3.648.04-5.215.89a9.833,9.833,0,0,0-3.133,3.347v.04a1.513,1.513,0,0,0,1.807,2.249,26.943,26.943,0,0,1,4.438-1.292,28.114,28.114,0,0,0,3.95-.9,18.473,18.473,0,0,0,3.535-1.881,22.96,22.96,0,0,0,2.778-1.948c1.078-.917,2.008-2.008,3.026-2.979a47.335,47.335,0,0,1,4.686-3.4,35.75,35.75,0,0,0,10.47-11.441,2.6,2.6,0,0,0,.475-1.52,2.752,2.752,0,0,0-.669-1.339c-1.185-1.506-2.263-2.738-3.91-1.339C779.843,582.375,778.216,582.9,776.944,584.009Z" transform="translate(-255.717 -277.909)" fill="#ffc1c7"/>
    <path id="Tracé_46" data-name="Tracé 46" d="M833.923,534.468a2.008,2.008,0,0,0,.428,1.178c.442.448,1.171.355,1.8.315a5.951,5.951,0,0,1,4.726,1.64,10.854,10.854,0,0,1,1.741,8.656,6.333,6.333,0,0,1-3.408,3.441,15.913,15.913,0,0,1-4.807,1.178,12,12,0,0,1-4.151,0,18.065,18.065,0,0,1-4.505-2.149,24.68,24.68,0,0,1-2.966-1.674,4.686,4.686,0,0,1-1.935-2.718,1.472,1.472,0,0,1,.489-1.573,2.78,2.78,0,0,1,.75-.228,3.174,3.174,0,0,0,2.283-2.243c.449-1.734-.629-3.481-.736-5.268a2.5,2.5,0,0,1,.315-1.493,3.28,3.28,0,0,1,1.506-1.071l3.347-1.5a20.027,20.027,0,0,1,3.153-1.4c1.064-.274,1.138.462,1.339,1.339C833.542,532.1,833.763,533.283,833.923,534.468Z" transform="translate(-279.016 -260.99)" fill="#ffc1c7"/>
    <path id="Tracé_47" data-name="Tracé 47" d="M833.923,534.468a2.008,2.008,0,0,0,.428,1.178c.442.448,1.171.355,1.8.315a5.951,5.951,0,0,1,4.726,1.64,10.854,10.854,0,0,1,1.741,8.656,6.333,6.333,0,0,1-3.408,3.441,15.913,15.913,0,0,1-4.807,1.178,12,12,0,0,1-4.151,0,18.065,18.065,0,0,1-4.505-2.149,24.68,24.68,0,0,1-2.966-1.674,4.686,4.686,0,0,1-1.935-2.718,1.472,1.472,0,0,1,.489-1.573,2.78,2.78,0,0,1,.75-.228,3.174,3.174,0,0,0,2.283-2.243c.449-1.734-.629-3.481-.736-5.268a2.5,2.5,0,0,1,.315-1.493,3.28,3.28,0,0,1,1.506-1.071l3.347-1.5a20.027,20.027,0,0,1,3.153-1.4c1.064-.274,1.138.462,1.339,1.339C833.542,532.1,833.763,533.283,833.923,534.468Z" transform="translate(-279.016 -260.99)" opacity="0.1"/>
    <circle id="Ellipse_5" data-name="Ellipse 5" cx="8.348" cy="8.348" r="8.348" transform="translate(537.85 259.58)" fill="#ffc1c7"/>
    <path id="Tracé_48" data-name="Tracé 48" d="M826.654,539.507a11.484,11.484,0,0,1,3.923-.991,4.639,4.639,0,0,1,3.655,1.446,22.4,22.4,0,0,1,1.667,3.18c1.232,2.008,3.635,2.925,5.556,4.3a4.188,4.188,0,0,1,1.151,1.125c.669,1.018.489,2.323.475,3.528a17.043,17.043,0,0,0,2.457,8.448,49.867,49.867,0,0,0,5.289,7.17,7.149,7.149,0,0,1,1.151,1.707c.469,1.125.335,2.484,1.031,3.481a9.726,9.726,0,0,0-4.934.669c-2.417,1-2.531,4.532-3.668,6.889-2.1,4.358-5.021,8.261-7.8,12.224a15.626,15.626,0,0,0-1.848,3.059c-.5-1.051-.154-2.3-.214-3.461-.134-2.591-1.633-4.914-2.055-7.471a35.235,35.235,0,0,1-.221-3.856,18.454,18.454,0,0,0-1.252-5.69,36.517,36.517,0,0,0-2.972-5.576,7.874,7.874,0,0,0-2.243-2.678c-1.111-.723-2.644-.93-3.347-2.055a4.484,4.484,0,0,0-.669-1.085,2.5,2.5,0,0,0-.777-.395,34.209,34.209,0,0,1-3.963-2.2,6.375,6.375,0,0,0-4.338-.944,53.563,53.563,0,0,1-9.258,8.488,7.5,7.5,0,0,0-2.718,2.778,14.139,14.139,0,0,1-4.4-3.287,2.23,2.23,0,0,1-.469-.669c-.341-.977.669-1.854,1.473-2.47a20.016,20.016,0,0,0,6.654-8.857c.864-2.269,1.433-4.88,3.4-6.306a11.718,11.718,0,0,0,1.761-1.238,22.275,22.275,0,0,0,1.339-2.089,3.541,3.541,0,0,1,3.715-1.259,16.4,16.4,0,0,1,2.216,1.064c1.854.837,3.983.669,6.025.442l7.839-.8a2.678,2.678,0,0,0-.576-2.544,7.794,7.794,0,0,0-1.038-.823A5.765,5.765,0,0,1,826.654,539.507Z" transform="translate(-270.756 -263.967)" fill="#ff6584"/>
    <path id="Tracé_49" data-name="Tracé 49" d="M825.774,506.884a7.216,7.216,0,0,1,4.2,4.11,16.769,16.769,0,0,0,.884,2.35,13.554,13.554,0,0,0,2.176,2.423,3.635,3.635,0,0,1,1.218,2.912c-.067.4-.241.777-.294,1.172-.234,1.734,1.734,2.925,2.336,4.566.783,2.156-.924,4.726.12,6.761a21.624,21.624,0,0,0,1.56,2.008c.448.669.5,1.874-.261,2.283-1.178.636-2.544-1.225-3.8-.736-.321.127-.569.4-.884.542-.877.395-1.9-.382-2.189-1.3a6.837,6.837,0,0,1,.054-2.852,3.448,3.448,0,0,0-.536-2.738c-.509-.582-1.339-.81-1.868-1.339-.964-.977-.783-2.551-.669-3.916.208-2.758-.288-5.777-2.263-7.719a.5.5,0,0,0-.355-.194.57.57,0,0,0-.355.221,16.664,16.664,0,0,1-3,2.484,1.888,1.888,0,0,1-1.071.388.679.679,0,0,1-.669-.756,7.865,7.865,0,0,0-2.5,1.834,2.616,2.616,0,0,1-.2-1.151,10.794,10.794,0,0,1-1.339,2.049,16.679,16.679,0,0,0-1.473,1.821,2.678,2.678,0,0,0-.375,2.229c.75,2.149,4.572,1.654,5.4,3.776.181.475.174,1,.361,1.466.368.91,1.339,1.339,2.142,1.941s1.5,1.627,1.018,2.477c-.422.73-1.406.81-2.223,1a5.355,5.355,0,0,0-3.347,2.517,3.16,3.16,0,0,1-.864,1.185,2.428,2.428,0,0,1-1.091.268c-1.138.094-2.443.121-3.227-.669-1.051-1.1-.556-3.113-1.627-4.2-.248-.241-.556-.415-.79-.669a2.986,2.986,0,0,1-.6-2.243c.107-2.229.931-4.412.8-6.641a37.981,37.981,0,0,0-.85-4.378,11.783,11.783,0,0,1,2.383-9.633,10.325,10.325,0,0,1,6.889-3.347C821,506.831,823.318,505.994,825.774,506.884Z" transform="translate(-275.158 -253.382)" fill="#3c354c"/>
  </g>
</svg>
